SplineFontDB: 3.0
FontName: Gamaliel
FullName: Gamaliel
FamilyName: Gamaliel
Weight: Medium
Copyright: Created by Rafael Ferran i Peralta with FontForge 2.0 (http://fontforge.sf.net)
UComments: "<http://mdc.cbuc.cat/cdm4/document.php?CISOROOT+AD0A-/incunableBC&CISOPTR+AD0A-12291&REC+AD0A-3>" 
Version: 001.000
ItalicAngle: 0
UnderlinePosition: -40
UnderlineWidth: 50
Ascent: 750
Descent: 250
LayerCount: 2
Layer: 0 0 "Back" 
Layer: 1 0 "Fore" 
XUID: [1021 362 1745724343 16509027]
FSType: 8
OS2Version: 0
OS2_WeightWidthSlopeOnly: 0
OS2_UseTypoMetrics: 1
CreationTime: 1267812268
ModificationTime: 1276112205
PfmFamily: 17
TTFWeight: 500
TTFWidth: 5
LineGap: 92
VLineGap: 0
OS2TypoAscent: 0
OS2TypoAOffset: 1
OS2TypoDescent: 0
OS2TypoDOffset: 1
OS2TypoLinegap: 92
OS2WinAscent: 0
OS2WinAOffset: 1
OS2WinDescent: 0
OS2WinDOffset: 1
HheadAscent: 0
HheadAOffset: 1
HheadDescent: 0
HheadDOffset: 1
OS2Vendor: 'PfEd'
Lookup: 4 0 1 "'liga' Standard Ligatures in Latin lookup 0"  {"'liga' Standard Ligatures in Latin lookup 0-1"  } ['liga' ('DFLT' <'dflt' > 'latn' <'dflt' > ) ]
Lookup: 258 0 0 "'kern' Horizontal Kerning in Latin lookup 0"  {"'kern' Horizontal Kerning in Latin lookup 0-1"  } ['kern' ('DFLT' <'dflt' > 'latn' <'dflt' > ) ]
DEI: 0
ShortTable: maxp 16
  0
  0
  0
  0
  0
  0
  0
  2
  1
  0
  9
  0
  256
  0
  0
  0
EndShort
TtTable: prep
PUSHW_1
 511
SCANCTRL
SVTCA[y-axis]
MPPEM
PUSHB_1
 8
LT
IF
PUSHB_2
 1
 1
INSTCTRL
EIF
PUSHB_2
 70
 6
CALL
IF
POP
PUSHB_1
 16
EIF
MPPEM
PUSHB_1
 20
GT
IF
POP
PUSHB_1
 128
EIF
SCVTCI
PUSHB_1
 6
CALL
NOT
IF
EIF
EndTTInstrs
TtTable: fpgm
PUSHB_1
 0
FDEF
PUSHB_1
 0
SZP0
MPPEM
PUSHB_1
 42
LT
IF
PUSHB_1
 74
SROUND
EIF
PUSHB_1
 0
SWAP
MIAP[rnd]
RTG
PUSHB_1
 6
CALL
IF
RTDG
EIF
MPPEM
PUSHB_1
 42
LT
IF
RDTG
EIF
DUP
MDRP[rp0,rnd,grey]
PUSHB_1
 1
SZP0
MDAP[no-rnd]
RTG
ENDF
PUSHB_1
 1
FDEF
DUP
DUP
MDRP[rp0,min,white]
MDAP[rnd]
PUSHB_1
 7
CALL
NOT
IF
DUP
DUP
GC[orig]
SWAP
GC[cur]
SUB
ROUND[White]
DUP
IF
DUP
ABS
DIV
SHPIX
ELSE
POP
POP
EIF
ELSE
POP
EIF
ENDF

StartChar: e
Encoding: 101 101 0
Width: 470
VWidth: 0
Flags: W
HStem: -20 120<196.219 330> 500 20G<223.333 299.68>
VStem: 50 120<126.219 180 225 370> 310 120<330 384.968>
LayerCount: 2
Fore
SplineSet
250 520 m 1
 349.36 520 430 439.36 430 340 c 2
 430 330 l 1
 230 180 l 1
 170 180 l 1
 170 135.84 205.84 100 250 100 c 2
 410 100 l 1
 330 -20 l 1
 250 -20 l 2
 139.6 -20 50 69.5996 50 180 c 2
 50 370 l 1
 250 520 l 1
170 400 m 1
 170 225 l 1
 310 330 l 1
 310 340 l 2
 310 373.12 283.12 400 250 400 c 2
 170 400 l 1
EndSplineSet
EndChar

StartChar: l
Encoding: 108 108 1
Width: 290
VWidth: 0
Flags: W
HStem: -20 21G<181.36 246.667> 650 20G<53.3333 113.12>
VStem: 80 120<102.177 550 550 550>
LayerCount: 2
Fore
SplineSet
60 670 m 1
 80 670 l 2
 146.24 670 200 616.24 200 550 c 2
 200 120 l 2
 200 108.96 208.96 100 220 100 c 2
 280 100 l 1
 240 -20 l 1
 220 -20 l 2
 142.72 -20 80 42.7197 80 120 c 2
 80 550 l 1
 20 550 l 1
 60 670 l 1
EndSplineSet
EndChar

StartChar: m
Encoding: 109 109 3
Width: 720
VWidth: 0
Flags: W
HStem: -20 21G<550 610> 400 120<50 70 70 70 290 308.489 530 547.823>
VStem: 70 120<0 400> 310 120<0 399.993> 550 120<20 397.823>
CounterMasks: 1 38
LayerCount: 2
Fore
SplineSet
50 520 m 1
 70 520 l 2
 122.25 520 166.728 486.546 183.188 439.906 c 1
 290 520 l 1
 347.301 520 396.594 485.521 418.25 436.188 c 1
 530 520 l 1
 607.28 520 670 457.28 670 380 c 2
 670 20 l 1
 550 -20 l 1
 550 380 l 2
 550 391.04 541.04 400 530 400 c 2
 430 400 l 1
 430 0 l 1
 310 0 l 1
 310 380 l 2
 310 391.04 301.04 400 290 400 c 2
 190 400 l 1
 190 0 l 1
 70 0 l 1
 70 400 l 1
 10 400 l 1
 50 520 l 1
EndSplineSet
EndChar

StartChar: u
Encoding: 117 117 4
Width: 480
VWidth: 0
Flags: W
HStem: -20 21G<151.36 216.672 383.875 436.667> 500 20G<110 170>
VStem: 50 120<102.177 480> 290 120<100 500>
LayerCount: 2
Fore
SplineSet
430 -20 m 1
 410 -20 l 2
 357.75 -20 313.272 13.4541 296.812 60.0938 c 1
 190 -20 l 1
 112.72 -20 50 42.7197 50 120 c 2
 50 480 l 1
 170 520 l 1
 170 120 l 2
 170 108.96 178.96 100 190 100 c 2
 290 100 l 1
 290 500 l 1
 410 500 l 1
 410 100 l 1
 470 100 l 1
 430 -20 l 1
EndSplineSet
EndChar

StartChar: n
Encoding: 110 110 5
Width: 480
VWidth: 0
Flags: W
HStem: -20 21G<310 370> 500 20G<43.3333 96.125 263.328 328.64>
VStem: 70 120<0 400> 310 120<20 397.823>
LayerCount: 2
Fore
SplineSet
50 520 m 1
 70 520 l 2
 122.25 520 166.728 486.546 183.188 439.906 c 1
 290 520 l 1
 367.28 520 430 457.28 430 380 c 2
 430 20 l 1
 310 -20 l 1
 310 380 l 2
 310 391.04 301.04 400 290 400 c 2
 190 400 l 1
 190 0 l 1
 70 0 l 1
 70 400 l 1
 10 400 l 1
 50 520 l 1
EndSplineSet
EndChar

StartChar: r
Encoding: 114 114 6
Width: 400
VWidth: 0
Flags: W
HStem: -20 21G<70 130> 500 20G<43.3333 94.3174 230 288.64>
VStem: 70 120<20 400> 270 120<340 397.823>
LayerCount: 2
Fore
SplineSet
50 520 m 1
 70 520 l 2
 118.635 520 160.565 491.029 179.406 449.406 c 1
 250 520 l 1
 327.28 520 390 457.28 390 380 c 2
 390 340 l 1
 270 300 l 1
 270 380 l 2
 270 391.04 261.04 400 250 400 c 2
 190 400 l 1
 190 20 l 1
 70 -20 l 1
 70 400 l 1
 10 400 l 1
 50 520 l 1
EndSplineSet
EndChar

StartChar: j
Encoding: 106 106 7
Width: 240
VWidth: 0
Flags: W
HStem: -220 21G<70 103.12> 500 20G<43.3333 103.12> 570 120<70 190>
VStem: 70 120<-167.078 400 400 400 570 690>
LayerCount: 2
Fore
SplineSet
70 690 m 1
 190 690 l 1
 190 570 l 1
 70 570 l 1
 70 690 l 1
50 520 m 1
 70 520 l 2
 136.24 520 190 466.24 190 400 c 2
 190 -100 l 2
 190 -166.24 136.24 -220 70 -220 c 1
 70 400 l 1
 10 400 l 1
 50 520 l 1
EndSplineSet
EndChar

StartChar: i
Encoding: 105 105 8
Width: 300
VWidth: 0
Flags: W
HStem: -20 21G<181.36 246.667> 500 20G<53.3333 113.12> 570 120<80 200>
VStem: 80 120<102.177 400 400 400 570 690>
LayerCount: 2
Fore
SplineSet
80 690 m 1
 200 690 l 1
 200 570 l 1
 80 570 l 1
 80 690 l 1
60 520 m 1
 80 520 l 2
 146.24 520 200 466.24 200 400 c 2
 200 120 l 2
 200 108.96 208.96 100 220 100 c 2
 280 100 l 1
 240 -20 l 1
 220 -20 l 2
 142.72 -20 80 42.7197 80 120 c 2
 80 400 l 1
 20 400 l 1
 60 520 l 1
EndSplineSet
EndChar

StartChar: f
Encoding: 102 102 9
Width: 350
VWidth: 0
Flags: W
HStem: -30 21G<80 140> 400 120<60 80 240 310>
VStem: 80 120<10 400 520 570>
LayerCount: 2
Fore
SplineSet
260 750 m 1
 337.28 750 400 687.28 400 610 c 1
 280 570 l 1
 280 610 l 2
 280 621.04 271.04 630 260 630 c 2
 200 630 l 1
 200 480 l 1
 240 520 l 1
 350 520 l 1
 310 400 l 1
 200 400 l 1
 200 10 l 1
 80 -30 l 1
 80 400 l 1
 20 400 l 1
 60 520 l 1
 80 520 l 1
 80 570 l 1
 260 750 l 1
EndSplineSet
EndChar

StartChar: t
Encoding: 116 116 10
Width: 370
VWidth: 0
Flags: W
HStem: -20 120<212.177 290> 400 120<70 90 250 320> 650 20G<183.333 210>
VStem: 90 120<102.177 400 520 580>
LayerCount: 2
Fore
SplineSet
210 670 m 1
 210 480 l 1
 250 520 l 1
 360 520 l 1
 320 400 l 1
 210 400 l 1
 210 120 l 2
 210 108.96 218.96 100 230 100 c 2
 330 100 l 1
 290 -20 l 1
 230 -20 l 2
 152.72 -20 90 42.7197 90 120 c 2
 90 400 l 1
 30 400 l 1
 70 520 l 1
 90 520 l 1
 90 580 l 1
 210 670 l 1
EndSplineSet
EndChar

StartChar: s
Encoding: 115 115 11
Width: 480
VWidth: 0
Flags: W
HStem: -20 120<162.177 280> 200 120<170 320 320 320> 500 20G<223.333 308.64>
VStem: 320 120<100 200 200 200>
LayerCount: 2
Fore
SplineSet
250 520 m 1
 270 520 l 2
 347.28 520 410 457.28 410 380 c 2
 410 370 l 1
 290 330 l 1
 290 380 l 2
 290 391.04 281.04 400 270 400 c 2
 170 400 l 1
 170 320 l 1
 320 320 l 2
 386.24 320 440 266.24 440 200 c 2
 440 100 l 1
 280 -20 l 1
 180 -20 l 2
 102.72 -20 40 42.7197 40 120 c 2
 40 150 l 1
 160 190 l 1
 160 120 l 2
 160 108.96 168.96 100 180 100 c 2
 320 100 l 1
 320 200 l 1
 170 200 l 2
 103.76 200 50 253.76 50 320 c 2
 50 370 l 1
 250 520 l 1
EndSplineSet
EndChar

StartChar: h
Encoding: 104 104 12
Width: 501
VWidth: 0
Flags: W
HStem: -20 21G<396.88 456.667> 500 20G<263.333 328.64> 650 20G<43.3333 103.12>
VStem: 70 120<0 400 445 550 550 550> 310 120<100 397.823>
LayerCount: 2
Fore
SplineSet
50 670 m 1
 70 670 l 2
 136.24 670 190 616.24 190 550 c 2
 190 445 l 1
 290 520 l 1
 367.28 520 430 457.28 430 380 c 2
 430 100 l 1
 490 100 l 1
 450 -20 l 1
 430 -20 l 2
 363.76 -20 310 33.7598 310 100 c 2
 310 380 l 2
 310 391.04 301.04 400 290 400 c 2
 190 400 l 1
 190 0 l 1
 70 0 l 1
 70 550 l 1
 10 550 l 1
 50 670 l 1
EndSplineSet
EndChar

StartChar: a
Encoding: 97 97 13
Width: 480
VWidth: 0
Flags: W
HStem: -20 120<157.767 190 410 430> 500 20G<223.333 308.64>
VStem: 30 120<107.767 170> 290 120<100 275 320 397.823>
LayerCount: 2
Fore
SplineSet
250 520 m 1
 270 520 l 2
 347.28 520 410 457.28 410 380 c 2
 410 100 l 1
 470 100 l 1
 430 -20 l 1
 410 -20 l 2
 357.75 -20 313.272 13.4541 296.812 60.0938 c 1
 190 -20 l 1
 101.68 -20 30 51.6797 30 140 c 2
 30 170 l 1
 230 320 l 1
 290 320 l 1
 290 380 l 2
 290 391.04 281.04 400 270 400 c 2
 170 400 l 1
 170 320 l 1
 50 280 l 1
 50 370 l 1
 250 520 l 1
290 275 m 1
 150 170 l 1
 150 140 l 2
 150 117.92 167.92 100 190 100 c 2
 290 100 l 1
 290 275 l 1
EndSplineSet
EndChar

StartChar: p
Encoding: 112 112 15
Width: 500
VWidth: 0
Flags: W
HStem: -230 21G<70 190> -20 120<250 303.781> 400 120<50 70 70 70 290 322.233>
VStem: 70 120<-210 25 100 400> 330 120<126.219 180 180 392.233>
LayerCount: 2
Fore
SplineSet
50 520 m 1
 70 520 l 2
 122.25 520 166.728 486.546 183.188 439.906 c 1
 290 520 l 1
 378.32 520 450 448.32 450 360 c 2
 450 180 l 2
 450 69.5996 360.4 -20 250 -20 c 1
 190 25 l 1
 190 -210 l 1
 70 -230 l 1
 70 400 l 1
 10 400 l 1
 50 520 l 1
190 400 m 1
 190 100 l 1
 250 100 l 2
 294.16 100 330 135.84 330 180 c 2
 330 360 l 2
 330 382.08 312.08 400 290 400 c 2
 190 400 l 1
EndSplineSet
EndChar

StartChar: d
Encoding: 100 100 16
Width: 500
VWidth: 0
Flags: W
HStem: -20 120<177.767 210 430 450> 400 120<196.219 250>
VStem: 50 120<107.767 373.781> 310 120<100 400 475 710>
LayerCount: 2
Fore
SplineSet
430 730 m 1
 430 100 l 1
 490 100 l 1
 450 -20 l 1
 430 -20 l 2
 377.75 -20 333.272 13.4541 316.812 60.0938 c 1
 210 -20 l 1
 121.68 -20 50 51.6797 50 140 c 2
 50 320 l 2
 50 430.4 139.6 520 250 520 c 1
 310 475 l 1
 310 710 l 1
 430 730 l 1
250 400 m 2
 205.84 400 170 364.16 170 320 c 2
 170 140 l 2
 170 117.92 187.92 100 210 100 c 2
 310 100 l 1
 310 400 l 1
 250 400 l 2
EndSplineSet
EndChar

StartChar: o
Encoding: 111 111 17
Width: 480
VWidth: 0
Flags: W
HStem: -20 120<196.219 270> 500 20G<223.333 299.68>
VStem: 50 120<126.219 370> 310 120<100 384.968>
LayerCount: 2
Fore
SplineSet
250 520 m 1
 349.36 520 430 439.36 430 340 c 2
 430 100 l 1
 270 -20 l 1
 250 -20 l 2
 139.6 -20 50 69.5996 50 180 c 2
 50 370 l 1
 250 520 l 1
170 400 m 1
 170 180 l 2
 170 135.84 205.84 100 250 100 c 2
 310 100 l 1
 310 340 l 2
 310 373.12 283.12 400 250 400 c 2
 170 400 l 1
EndSplineSet
EndChar

StartChar: b
Encoding: 98 98 18
Width: 480
VWidth: 0
Flags: W
HStem: -20 120<196.219 270> 500 20G<223.333 299.68>
VStem: 50 120<126.219 400 460 700> 310 120<100 384.968>
LayerCount: 2
Fore
SplineSet
170 400 m 1
 170 180 l 2
 170 135.84 205.84 100 250 100 c 2
 310 100 l 1
 310 340 l 2
 310 373.12 283.12 400 250 400 c 2
 170 400 l 1
170 730 m 1
 170 460 l 1
 250 520 l 1
 349.36 520 430 439.36 430 340 c 2
 430 100 l 1
 270 -20 l 1
 250 -20 l 2
 139.6 -20 50 69.5996 50 180 c 2
 50 700 l 1
 170 730 l 1
EndSplineSet
EndChar

StartChar: q
Encoding: 113 113 19
Width: 480
VWidth: 0
Flags: W
HStem: -230 21G<310 430> -20 120<196.219 270> 500 20G<223.333 299.68>
VStem: 50 120<126.219 180 180 370> 310 120<-210 10 100 384.968>
LayerCount: 2
Fore
SplineSet
170 400 m 1
 170 180 l 2
 170 135.84 205.84 100 250 100 c 2
 310 100 l 1
 310 340 l 2
 310 373.12 283.12 400 250 400 c 2
 170 400 l 1
250 520 m 1
 349.36 520 430 439.36 430 340 c 2
 430 -210 l 5
 310 -230 l 1
 310 10 l 1
 270 -20 l 1
 250 -20 l 2
 139.6 -20 50 69.5996 50 180 c 2
 50 370 l 1
 250 520 l 1
EndSplineSet
EndChar

StartChar: c
Encoding: 99 99 20
Width: 380
VWidth: 0
Flags: W
HStem: -20 120<196.219 290> 400 120<250 330>
VStem: 50 120<126.219 370>
LayerCount: 2
Fore
SplineSet
250 520 m 1
 370 520 l 1
 330 400 l 1
 170 400 l 1
 170 180 l 2
 170 135.84 205.84 100 250 100 c 2
 370 100 l 1
 290 -20 l 1
 250 -20 l 2
 139.6 -20 50 69.5996 50 180 c 2
 50 370 l 1
 250 520 l 1
EndSplineSet
EndChar

StartChar: x
Encoding: 120 120 21
Width: 480
VWidth: 0
Flags: W
HStem: -20 120<90 110 337.595 390> 400 120<90 162.403 390 430>
VStem: 190 120<126.219 373.781>
LayerCount: 2
Fore
SplineSet
90 520 m 1
 110 520 l 2
 178.254 520 238.561 485.736 274.656 433.5 c 1
 390 520 l 1
 470 520 l 1
 430 400 l 1
 310 400 l 1
 310 180 l 2
 310 135.84 345.84 100 390 100 c 2
 470 100 l 1
 390 -20 l 1
 321.741 -20 261.438 14.2568 225.344 66.5 c 1
 110 -20 l 1
 10 -20 l 1
 90 100 l 1
 190 100 l 1
 190 320 l 2
 190 364.16 154.16 400 110 400 c 2
 50 400 l 1
 90 520 l 1
EndSplineSet
EndChar

StartChar: y
Encoding: 121 121 22
Width: 460
VWidth: 0
Flags: W
HStem: -220 120<110 287.823> -20 21G<151.36 216.667> 500 20G<110 170>
VStem: 50 120<102.177 120 120 480> 290 120<-97.823 55 100 500>
LayerCount: 2
Fore
SplineSet
170 520 m 1
 170 120 l 2
 170 108.96 178.96 100 190 100 c 2
 290 100 l 1
 290 500 l 1
 410 500 l 1
 410 160 l 1
 410 100 l 1
 410 -20 l 1
 410 -80 l 2
 410 -157.28 347.28 -220 270 -220 c 2
 70 -220 l 1
 110 -100 l 1
 270 -100 l 2
 281.04 -100 290 -91.04 290 -80 c 2
 290 55 l 1
 190 -20 l 1
 112.72 -20 50 42.7197 50 120 c 2
 50 480 l 1
 170 520 l 1
EndSplineSet
EndChar

StartChar: g
Encoding: 103 103 23
Width: 500
VWidth: 0
Flags: W
HStem: -220 120<110 307.823> -20 120<196.219 250> 400 120<250 310 430 450>
VStem: 50 120<126.219 370> 310 120<-97.823 40 100 400>
LayerCount: 2
Fore
SplineSet
250 520 m 1
 490 520 l 1
 450 400 l 1
 430 400 l 1
 430 -80 l 2
 430 -157.28 367.28 -220 290 -220 c 2
 70 -220 l 1
 110 -100 l 1
 290 -100 l 2
 301.04 -100 310 -91.04 310 -80 c 2
 310 40 l 1
 250 -20 l 1
 139.6 -20 50 69.5996 50 180 c 2
 50 370 l 1
 250 520 l 1
170 400 m 1
 170 180 l 2
 170 135.84 205.84 100 250 100 c 2
 310 100 l 1
 310 400 l 1
 170 400 l 1
EndSplineSet
EndChar

StartChar: v
Encoding: 118 118 24
Width: 490
VWidth: 0
Flags: W
HStem: -20 120<160 280.206> 500 20G<53.3333 113.12 380 440>
VStem: 80 120<140 400 400 400> 320 120<139.794 480>
LayerCount: 2
Fore
SplineSet
60 520 m 1
 80 520 l 2
 146.24 520 200 466.24 200 400 c 2
 200 140 l 1
 160 100 l 1
 220 100 l 2
 275.2 100 320 144.8 320 200 c 2
 320 480 l 1
 440 520 l 1
 440 200 l 2
 440 78.5596 341.44 -20 220 -20 c 2
 80 -20 l 1
 80 400 l 1
 20 400 l 1
 60 520 l 1
EndSplineSet
EndChar

StartChar: w
Encoding: 119 119 25
Width: 730
VWidth: 0
Flags: W
HStem: -20 120<160 279.885 450 520.205> 500 20G<53.3333 113.12 380 440 620 680>
VStem: 80 120<140 400 400 400> 320 120<138.412 480> 560 120<139.794 480>
CounterMasks: 1 38
LayerCount: 2
Fore
SplineSet
60 520 m 1
 80 520 l 2
 146.24 520 200 466.24 200 400 c 2
 200 140 l 1
 160 100 l 1
 220 100 l 2
 275.2 100 320 144.8 320 200 c 2
 320 480 l 1
 440 520 l 1
 440 200 l 2
 440 163.997 431.322 130.009 415.969 100 c 1
 460 100 l 2
 515.2 100 560 144.8 560 200 c 2
 560 480 l 1
 680 520 l 1
 680 200 l 2
 680 78.5596 581.439 -20 460 -20 c 2
 450 -20 l 1
 380.438 49.5625 l 1
 340.292 6.7666 283.264 -20 220 -20 c 2
 80 -20 l 1
 80 400 l 1
 20 400 l 1
 60 520 l 1
EndSplineSet
EndChar

StartChar: k
Encoding: 107 107 26
Width: 480
VWidth: 0
Flags: W
HStem: -20 21G<376.88 436.667> 220 120<190 270 270 270> 650 20G<43.3333 103.12>
VStem: 70 120<0 220 340 550 550 550> 270 120<360 500> 290 120<100 218.469>
LayerCount: 2
Fore
SplineSet
50 670 m 1xf8
 70 670 l 2
 136.24 670 190 616.24 190 550 c 2
 190 340 l 1
 270 340 l 1
 270 500 l 1
 390 500 l 1
 390 360 l 1xf8
 326.344 328.188 l 1
 375.588 306.491 410 257.237 410 200 c 2
 410 100 l 1
 470 100 l 1
 430 -20 l 1
 410 -20 l 2
 343.76 -20 290 33.7598 290 100 c 2
 290 200 l 2xf4
 290 211.04 281.04 220 270 220 c 2
 190 220 l 1
 190 0 l 1
 70 0 l 1
 70 550 l 1
 10 550 l 1
 50 670 l 1xf8
EndSplineSet
EndChar

StartChar: K
Encoding: 75 75 27
Width: 540
VWidth: 0
Flags: W
HStem: -20 21G<10 103.12 436.88 496.667> 280 120<50 70 230 320>
VStem: 70 120<100 280 400 640> 320 120<460 640> 350 120<100 277.227>
LayerCount: 2
Fore
SplineSet
190 680 m 1xe8
 190 360 l 1
 230 400 l 1
 320 400 l 1
 320 640 l 1
 440 680 l 1
 440 460 l 1xf0
 373.188 393.188 l 1
 429.354 374.971 470 322.211 470 260 c 2
 470 100 l 1
 530 100 l 1
 490 -20 l 1
 470 -20 l 2
 403.76 -20 350 33.7598 350 100 c 2
 350 260 l 2
 350 271.04 341.04 280 330 280 c 2
 190 280 l 1
 190 100 l 2
 190 33.7598 136.24 -20 70 -20 c 2
 10 -20 l 1
 50 100 l 1
 70 100 l 1
 70 280 l 1
 10 280 l 1
 50 400 l 1
 70 400 l 1
 70 640 l 1
 190 680 l 1xe8
EndSplineSet
EndChar

StartChar: S
Encoding: 83 83 28
Width: 530
VWidth: 0
Flags: W
HStem: -20 120<165.266 190 190 320> 280 120<177.767 352.233> 550 120<250 317.823>
VStem: 30 120<113.951 200> 50 120<407.767 520> 320 120<490 547.823> 360 120<100 272.233>
LayerCount: 2
Fore
SplineSet
250 670 m 1xec
 300 670 l 2
 377.28 670 440 607.28 440 530 c 2
 440 490 l 1
 320 440 l 1
 320 530 l 2
 320 541.04 311.04 550 300 550 c 2
 170 550 l 1
 170 440 l 2
 170 417.92 187.92 400 210 400 c 2
 320 400 l 2xec
 408.32 400 480 328.32 480 240 c 2
 480 100 l 1xe2
 320 -20 l 1xe4
 210 -20 l 1
 190 -20 l 1
 190 -18.875 l 1
 100.041 -8.91602 30 67.4004 30 160 c 2
 30 200 l 1
 150 250 l 1
 150 160 l 2
 150 126.88 176.88 100 210 100 c 2
 360 100 l 1
 360 240 l 2xf2
 360 262.08 342.08 280 320 280 c 2
 210 280 l 2
 121.68 280 50 351.68 50 440 c 2
 50 520 l 1
 250 670 l 1xec
EndSplineSet
EndChar

StartChar: z
Encoding: 122 122 29
Width: 470
VWidth: 0
Flags: W
HStem: -10 120<150 420> 390 120<90 320>
LayerCount: 2
Fore
SplineSet
90 510 m 1
 450 510 l 1
 237.594 141.844 l 1
 150 110 l 1
 460 110 l 1
 420 -10 l 1
 10 -10 l 1
 219.75 353.531 l 1
 320 390 l 1
 50 390 l 1
 90 510 l 1
EndSplineSet
EndChar

StartChar: ccedilla
Encoding: 231 231 30
Width: 380
VWidth: 0
Flags: W
HStem: 400 120<250 330>
VStem: 50 120<126.3 370>
LayerCount: 2
Fore
SplineSet
250 520 m 1
 370 520 l 1
 330 400 l 1
 170 400 l 1
 170 180 l 2
 170 135.84 205.84 100 250 100 c 2
 370 100 l 1
 290 -20 l 1
 270 -20 l 1
 270 -30 l 2
 270 -129.36 189.36 -210 90 -210 c 1
 90 -90 l 1
 123.12 -90 150 -63.1201 150 -30 c 1
 178.031 -6.625 l 1
 103.159 22.292 50 94.9678 50 180 c 2
 50 370 l 1
 250 520 l 1
EndSplineSet
EndChar

StartChar: ae
Encoding: 230 230 31
Width: 710
VWidth: 0
Flags: W
HStem: -20 120<157.767 190 410 570> 400 120<250 289.505 490 534.968>
VStem: 30 120<107.767 170> 290 120<100 180 225 275 320 400> 550 120<330 384.968>
CounterMasks: 1 38
LayerCount: 2
Fore
SplineSet
250 520 m 1
 270 520 l 2
 322.949 520 369.056 490.554 392.844 447.156 c 1
 490 520 l 1
 589.36 520 670 439.36 670 340 c 2
 670 330 l 1
 470 180 l 1
 410 180 l 1
 410 100 l 1
 650 100 l 1
 570 -20 l 1
 410 -20 l 2
 357.75 -20 313.272 13.4541 296.812 60.0938 c 1
 190 -20 l 1
 101.68 -20 30 51.6797 30 140 c 2
 30 170 l 1
 230 320 l 1
 290 320 l 1
 290 380 l 2
 290 391.04 281.04 400 270 400 c 2
 170 400 l 1
 170 340 l 1
 50 300 l 1
 50 370 l 1
 250 520 l 1
410 400 m 1
 410 380 l 1
 410 225 l 1
 550 330 l 1
 550 340 l 2
 550 373.12 523.12 400 490 400 c 2
 410 400 l 1
290 275 m 1
 150 170 l 1
 150 140 l 2
 150 117.92 167.92 100 190 100 c 2
 290 100 l 1
 290 275 l 1
EndSplineSet
EndChar

StartChar: E
Encoding: 69 69 52
Width: 530
VWidth: 0
Flags: W
HStem: -10 120<60 80 160 460> 280 120<60 80 240 440> 540 120<280 460>
VStem: 80 120<150 280 400 510>
LayerCount: 2
Fore
SplineSet
280 660 m 1
 500 660 l 1
 460 540 l 1
 200 540 l 1
 200 360 l 1
 240 400 l 1
 480 400 l 1
 440 280 l 1
 200 280 l 1
 200 150 l 1
 160 110 l 1
 500 110 l 1
 460 -10 l 1
 20 -10 l 1
 60 110 l 1
 80 110 l 1
 80 280 l 1
 20 280 l 1
 60 400 l 1
 80 400 l 1
 80 510 l 1
 280 660 l 1
EndSplineSet
EndChar

StartChar: colon
Encoding: 58 58 53
Width: 280
VWidth: 0
Flags: W
HStem: 0 120<80 200> 280 120<80 200>
VStem: 80 120<0 120 280 400>
LayerCount: 2
Fore
SplineSet
80 120 m 1
 200 120 l 1
 200 0 l 1
 80 0 l 1
 80 120 l 1
80 400 m 5
 200 400 l 5
 200 280 l 5
 80 280 l 5
 80 400 l 5
EndSplineSet
EndChar

StartChar: semicolon
Encoding: 59 59 54
Width: 280
VWidth: 0
Flags: W
HStem: 280 120<80 200>
VStem: 80 120<20 120 280 400>
LayerCount: 2
Fore
SplineSet
80 400 m 1
 200 400 l 1
 200 280 l 1
 80 280 l 1
 80 400 l 1
80 120 m 1
 200 120 l 1
 200 20 l 1
 140 -120 l 1
 80 -120 l 1
 80 120 l 1
EndSplineSet
Validated: 1
EndChar

StartChar: period
Encoding: 46 46 55
Width: 280
VWidth: 0
Flags: W
HStem: 0 120<80 200>
VStem: 80 120<0 120>
LayerCount: 2
Fore
SplineSet
80 120 m 1
 200 120 l 1
 200 0 l 1
 80 0 l 1
 80 120 l 1
EndSplineSet
Validated: 1
EndChar

StartChar: comma
Encoding: 44 44 56
Width: 280
VWidth: 0
Flags: W
HStem: -120 240<80 140>
VStem: 80 120<20 120>
LayerCount: 2
Fore
SplineSet
80 120 m 1
 200 120 l 1
 200 20 l 1
 140 -120 l 1
 80 -120 l 1
 80 120 l 1
EndSplineSet
Validated: 1
EndChar

StartChar: hyphen
Encoding: 45 45 57
Width: 460
VWidth: 0
Flags: W
HStem: 200 120<80 380>
VStem: 80 300<200 320>
LayerCount: 2
Fore
SplineSet
80 320 m 1
 380 320 l 5
 380 200 l 5
 80 200 l 1
 80 320 l 1
EndSplineSet
Validated: 3073
EndChar

StartChar: equal
Encoding: 61 61 58
Width: 520
VWidth: 0
Flags: W
HStem: 100 100<80 440> 320 100<80 440>
LayerCount: 2
Fore
SplineSet
80 200 m 1
 440 200 l 1
 440 100 l 1
 80 100 l 1
 80 200 l 1
80 420 m 1
 440 420 l 1
 440 320 l 1
 80 320 l 1
 80 420 l 1
EndSplineSet
Validated: 1
EndChar

StartChar: periodcentered
Encoding: 183 183 59
Width: 280
VWidth: 0
Flags: W
HStem: 200 120<80 200>
VStem: 80 120<200 320>
LayerCount: 2
Fore
SplineSet
80 320 m 1
 200 320 l 1
 200 200 l 1
 80 200 l 1
 80 320 l 1
EndSplineSet
Validated: 3073
EndChar

StartChar: acute
Encoding: 180 180 60
Width: 310
VWidth: 0
Flags: W
HStem: 550 120<130 160>
VStem: 80 150
LayerCount: 2
Fore
SplineSet
130 670 m 5
 230 670 l 5
 160 550 l 5
 80 550 l 5
 130 670 l 5
EndSplineSet
EndChar

StartChar: quotesingle
Encoding: 39 39 61
Width: 170
VWidth: 0
Flags: W
HStem: 550 160<40 100>
VStem: 40 60<550 578>
LayerCount: 2
Fore
SplineSet
40 710 m 1
 140 710 l 1
 100 550 l 1
 40 550 l 1
 40 710 l 1
EndSplineSet
EndChar

StartChar: grave
Encoding: 96 96 62
Width: 310
VWidth: 0
Flags: W
HStem: 550 120<150 180>
VStem: 80 150
LayerCount: 2
Fore
SplineSet
80 670 m 1
 180 670 l 1
 230 550 l 1
 150 550 l 1
 80 670 l 1
EndSplineSet
EndChar

StartChar: asciicircum
Encoding: 94 94 63
Width: 460
VWidth: 0
Flags: W
HStem: 550 120<170 180 280 290>
VStem: 80 300
LayerCount: 2
Fore
SplineSet
170 670 m 1
 290 670 l 1
 380 550 l 1
 280 550 l 1
 230 635.719 l 1
 180 550 l 1
 80 550 l 1
 170 670 l 1
EndSplineSet
EndChar

StartChar: ntilde
Encoding: 241 241 64
Width: 480
VWidth: 0
Flags: W
HStem: -20 21<310 370> 500 20<43.3333 96.125 263.328 328.64>
VStem: 70 120<0 400> 310 120<20 397.823>
LayerCount: 2
Fore
SplineSet
349.312 654.891 m 1
 408.656 646.047 l 1
 336 565.891 l 1
 157.969 592.484 l 1
 133.75 565.797 l 1
 74.4062 574.641 l 1
 147.062 654.797 l 1
 325.094 628.203 l 1
 349.312 654.891 l 1
EndSplineSet
Refer: 5 110 N 1 0 0 1 0 0 2
EndChar

StartChar: A
Encoding: 65 65 65
Width: 540
VWidth: 0
Flags: W
HStem: -20 21G<10 103.12 370 430> 280 120<50 70 230 330> 550 120<270 330.206>
VStem: 70 120<100 280 400 520> 370 120<10 320 400 510.206>
LayerCount: 2
Fore
SplineSet
190 550 m 1
 190 360 l 1
 230 400 l 1
 370 400 l 1
 370 450 l 2
 370 505.2 325.2 550 270 550 c 2
 190 550 l 1
270 670 m 1
 391.44 670 490 571.44 490 450 c 2
 490 10 l 5
 370 -30 l 1
 370 320 l 1
 330 280 l 1
 190 280 l 1
 190 100 l 2
 190 33.7598 136.24 -20 70 -20 c 2
 10 -20 l 1
 50 100 l 1
 70 100 l 1
 70 280 l 1
 10 280 l 1
 50 400 l 1
 70 400 l 1
 70 520 l 1
 270 670 l 1
EndSplineSet
EndChar

StartChar: F
Encoding: 70 70 70
Width: 520
VWidth: 0
Flags: W
HStem: -20 21G<20 113.12> 280 120<60 80 240 440> 540 120<280 460>
VStem: 80 120<100 280 400 510>
LayerCount: 2
Fore
SplineSet
280 660 m 1
 500 660 l 1
 460 540 l 1
 200 540 l 1
 200 360 l 1
 240 400 l 1
 480 400 l 1
 440 280 l 1
 200 280 l 1
 200 100 l 2
 200 33.7598 146.24 -20 80 -20 c 2
 20 -20 l 1
 60 100 l 1
 80 100 l 1
 80 280 l 1
 20 280 l 1
 60 400 l 1
 80 400 l 1
 80 510 l 1
 280 660 l 1
EndSplineSet
Validated: 1
EndChar

StartChar: AE
Encoding: 198 198 75
Width: 820
VWidth: 0
Flags: W
HStem: -10 120<350 370 450 750> 280 120<50 70 230 330 530 730> 540 120<570 750> 550 120<270 331.727>
VStem: 70 120<100 280 400 520> 370 120<150 280 400 511.727>
LayerCount: 2
Fore
SplineSet
270 670 m 1xdc
 346.233 670 413.427 631.145 452.906 572.188 c 1
 570 660 l 1
 790 660 l 1
 750 540 l 1
 470.781 540 l 1xec
 483.13 512.52 490 482.062 490 450 c 2
 490 360 l 1
 530 400 l 1
 770 400 l 1
 730 280 l 1
 490 280 l 1
 490 150 l 1
 450 110 l 1
 790 110 l 1
 750 -10 l 1
 310 -10 l 1
 350 110 l 1
 370 110 l 1
 370 320 l 1
 330 280 l 1
 190 280 l 1
 190 100 l 2
 190 33.7598 136.24 -20 70 -20 c 2
 10 -20 l 1
 50 100 l 1
 70 100 l 1
 70 280 l 1
 10 280 l 1
 50 400 l 1
 70 400 l 1
 70 520 l 1
 270 670 l 1xdc
190 550 m 1xdc
 190 360 l 1
 230 400 l 1
 370 400 l 1
 370 450 l 2
 370 505.2 325.2 550 270 550 c 2
 190 550 l 1xdc
EndSplineSet
EndChar

StartChar: B
Encoding: 66 66 76
Width: 550
VWidth: 0
Flags: W
HStem: -10 120<60 80 160 350> 280 120<60 80 240 340> 550 120<280 337.823>
VStem: 80 120<150 280 400 520> 340 120<440 547.823> 390 120<110 273.844>
LayerCount: 2
Fore
SplineSet
280 670 m 1xf4
 320 670 l 2
 397.28 670 460 607.28 460 530 c 2
 460 440 l 1xf8
 408.844 388.844 l 1
 468.08 365.387 510 307.55 510 240 c 2
 510 110 l 1
 350 -10 l 1
 20 -10 l 1
 60 110 l 1
 80 110 l 1
 80 280 l 1
 20 280 l 1
 60 400 l 1
 80 400 l 1
 80 520 l 1
 280 670 l 1xf4
200 550 m 1
 200 360 l 1
 240 400 l 1
 340 400 l 1
 340 530 l 2
 340 541.04 331.04 550 320 550 c 2
 200 550 l 1
200 280 m 1
 200 150 l 1
 160 110 l 1
 390 110 l 1
 390 240 l 2xf4
 390 262.08 372.08 280 350 280 c 2
 200 280 l 1
EndSplineSet
EndChar

StartChar: D
Encoding: 68 68 77
Width: 550
VWidth: 0
Flags: W
HStem: -10 120<50 70 150 340> 550 120<270 364.968>
VStem: 70 120<150 280 400 520> 380 120<110 534.968>
LayerCount: 2
Fore
SplineSet
270 670 m 1
 320 670 l 2
 419.36 670 500 589.36 500 490 c 2
 500 110 l 1
 340 -10 l 1
 10 -10 l 1
 50 110 l 1
 70 110 l 1
 70 280 l 1
 10 280 l 1
 50 400 l 1
 70 400 l 1
 70 520 l 1
 270 670 l 1
190 550 m 1
 190 150 l 1
 150 110 l 1
 380 110 l 1
 380 490 l 2
 380 523.12 353.12 550 320 550 c 2
 190 550 l 1
EndSplineSet
EndChar

StartChar: C
Encoding: 67 67 78
Width: 480
VWidth: 0
Flags: W
HStem: -20 120<229.794 390> 540 120<270 430>
VStem: 70 120<139.794 280 400 510>
LayerCount: 2
Fore
SplineSet
270 660 m 1
 470 660 l 1
 430 540 l 1
 190 540 l 1
 190 200 l 2
 190 144.8 234.8 100 290 100 c 2
 470 100 l 1
 390 -20 l 1
 290 -20 l 2
 168.56 -20 70 78.5596 70 200 c 2
 70 280 l 1
 10 280 l 1
 50 400 l 1
 70 400 l 1
 70 510 l 1
 270 660 l 1
EndSplineSet
EndChar

StartChar: O
Encoding: 79 79 79
Width: 570
VWidth: 0
Flags: W
HStem: -20 120<229.794 360> 550 120<270 373.781>
VStem: 70 120<139.794 280 400 520> 400 120<100 523.781>
LayerCount: 2
Fore
SplineSet
270 670 m 1
 320 670 l 2
 430.4 670 520 580.4 520 470 c 2
 520 100 l 1
 360 -20 l 1
 290 -20 l 2
 168.56 -20 70 78.5596 70 200 c 2
 70 280 l 1
 10 280 l 1
 50 400 l 1
 70 400 l 1
 70 520 l 1
 270 670 l 1
190 550 m 1
 190 200 l 2
 190 144.8 234.8 100 290 100 c 2
 400 100 l 1
 400 470 l 2
 400 514.16 364.16 550 320 550 c 2
 190 550 l 1
EndSplineSet
EndChar

StartChar: P
Encoding: 80 80 80
Width: 500
VWidth: 0
Flags: W
HStem: -20 21G<10 103.12> 280 120<50 70 230 352.233> 540 120<50 110 190 352.233>
VStem: 70 120<100 280 400 500> 360 120<407.767 440 440 532.233>
LayerCount: 2
Fore
SplineSet
50 660 m 1
 320 660 l 2
 408.32 660 480 588.32 480 500 c 2
 480 440 l 2
 480 351.68 408.32 280 320 280 c 2
 190 280 l 1
 190 100 l 2
 190 33.7598 136.24 -20 70 -20 c 2
 10 -20 l 1
 50 100 l 1
 70 100 l 1
 70 280 l 1
 10 280 l 1
 50 400 l 1
 70 400 l 1
 70 500 l 1
 110 540 l 1
 10 540 l 1
 50 660 l 1
190 540 m 1
 190 360 l 1
 230 400 l 1
 320 400 l 2
 342.08 400 360 417.92 360 440 c 2
 360 500 l 2
 360 522.08 342.08 540 320 540 c 2
 190 540 l 1
EndSplineSet
EndChar

StartChar: G
Encoding: 71 71 81
Width: 610
VWidth: 0
Flags: W
HStem: -20 120<229.794 400> 280 120<50 70 330 440 440 440> 540 120<270 430 430 430>
VStem: 70 120<139.794 280 400 510> 440 120<-100 20 100 280 280 280>
LayerCount: 2
Fore
SplineSet
270 660 m 1
 430 660 l 2
 496.24 660 550 606.24 550 540 c 1
 430 500 l 1
 430 540 l 1
 190 540 l 1
 190 200 l 2
 190 144.8 234.8 100 290 100 c 2
 440 100 l 1
 440 280 l 1
 290 280 l 1
 330 400 l 1
 440 400 l 2
 506.24 400 560 346.24 560 280 c 2
 560 -100 l 1
 440 -140 l 1
 440 20 l 1
 400 -20 l 1
 290 -20 l 2
 168.56 -20 70 78.5596 70 200 c 2
 70 280 l 1
 10 280 l 1
 50 400 l 1
 70 400 l 1
 70 510 l 1
 270 660 l 1
EndSplineSet
EndChar

StartChar: underscore
Encoding: 95 95 82
Width: 500
VWidth: 0
Flags: W
HStem: -90 50<0 500>
LayerCount: 2
Fore
SplineSet
0 -40 m 1
 500 -40 l 1
 500 -90 l 5
 0 -90 l 1
 0 -40 l 1
EndSplineSet
Validated: 1
EndChar

StartChar: V
Encoding: 86 86 83
Width: 540
VWidth: 0
Flags: W
HStem: -10 120<50 70 150 330.206> 650 20G<43.3333 103.12>
VStem: 70 120<150 280 400 550 550 550> 370 120<149.794 210 210 640>
LayerCount: 2
Fore
SplineSet
490 680 m 1
 490 210 l 2
 490 88.5596 391.44 -10 270 -10 c 2
 70 -10 l 1
 10 -10 l 1
 50 110 l 1
 70 110 l 1
 70 280 l 1
 10 280 l 1
 50 400 l 1
 70 400 l 1
 70 550 l 1
 10 550 l 1
 50 670 l 1
 70 670 l 2
 136.24 670 190 616.24 190 550 c 2
 190 150 l 1
 150 110 l 1
 270 110 l 2
 325.2 110 370 154.8 370 210 c 2
 370 640 l 1
 490 680 l 1
EndSplineSet
EndChar

StartChar: W
Encoding: 87 87 84
Width: 840
VWidth: 0
Flags: W
HStem: -10 120<50 70 150 329.885 500 630.205> 650 20G<43.3333 103.12>
VStem: 70 120<150 280 400 550 550 550> 370 120<148.412 210 210 640> 670 120<149.794 640>
CounterMasks: 1 38
LayerCount: 2
Fore
SplineSet
490 680 m 1
 490 210 l 2
 490 173.997 481.322 140.009 465.969 110 c 1
 570 110 l 2
 625.2 110 670 154.8 670 210 c 2
 670 640 l 1
 790 680 l 1
 790 210 l 2
 790 88.5596 691.439 -10 570 -10 c 2
 500 -10 l 1
 430.438 59.5625 l 1
 390.292 16.7666 333.264 -10 270 -10 c 2
 70 -10 l 1
 10 -10 l 1
 50 110 l 1
 70 110 l 1
 70 280 l 1
 10 280 l 1
 50 400 l 1
 70 400 l 1
 70 550 l 1
 10 550 l 1
 50 670 l 1
 70 670 l 2
 136.24 670 190 616.24 190 550 c 2
 190 150 l 1
 150 110 l 1
 270 110 l 2
 325.2 110 370 154.8 370 210 c 2
 370 640 l 1
 490 680 l 1
EndSplineSet
EndChar

StartChar: N
Encoding: 78 78 85
Width: 570
VWidth: 0
Flags: W
HStem: -20 21G<10 103.12 400 460> 540 120<50 70 70 70 290 365.398>
VStem: 70 120<100 280 400 540> 400 120<10 504.305>
LayerCount: 2
Fore
SplineSet
50 660 m 1
 70 660 l 2
 122.25 660 166.728 626.546 183.188 579.906 c 1
 290 660 l 1
 300 660 l 2
 421.44 660 520 571.44 520 450 c 2
 520 10 l 1
 400 -30 l 1
 400 450 l 2
 400 505.2 355.2 540 300 540 c 2
 190 540 l 1
 190 100 l 2
 190 33.7598 136.24 -20 70 -20 c 2
 10 -20 l 1
 50 100 l 1
 70 100 l 1
 70 280 l 1
 10 280 l 1
 50 400 l 1
 70 400 l 1
 70 540 l 1
 10 540 l 1
 50 660 l 1
EndSplineSet
EndChar

StartChar: M
Encoding: 77 77 86
Width: 840
VWidth: 0
Flags: W
HStem: -20 21G<10 103.12 370 430 670 730> 550 120<270 329.545 570 630.206>
VStem: 70 120<100 280 400 520> 370 120<10 511.588> 670 120<10 510.206>
CounterMasks: 1 38
LayerCount: 2
Fore
SplineSet
270 670 m 1
 343.362 670 408.366 634.003 448.344 578.75 c 1
 570 670 l 1
 691.44 670 790 571.44 790 450 c 2
 790 10 l 1
 670 -30 l 1
 670 450 l 2
 670 505.2 625.2 550 570 550 c 2
 465.969 550 l 1
 481.322 519.991 490 486.003 490 450 c 2
 490 10 l 1
 370 -30 l 1
 370 450 l 2
 370 505.2 325.2 550 270 550 c 2
 190 550 l 1
 190 100 l 2
 190 33.7598 136.24 -20 70 -20 c 2
 10 -20 l 1
 50 100 l 1
 70 100 l 1
 70 280 l 1
 10 280 l 1
 50 400 l 1
 70 400 l 1
 70 520 l 1
 270 670 l 1
EndSplineSet
EndChar

StartChar: I
Encoding: 73 73 87
Width: 420
VWidth: 0
Flags: W
HStem: -10 120<60 140 220 360> 540 120<60 180 260 360>
VStem: 140 120<150 280 400 500>
LayerCount: 2
Fore
SplineSet
60 660 m 1
 400 660 l 1
 360 540 l 1
 260 540 l 1
 260 150 l 1
 220 110 l 1
 400 110 l 1
 360 -10 l 1
 20 -10 l 1
 60 110 l 1
 140 110 l 1
 140 280 l 1
 80 280 l 1
 120 400 l 1
 140 400 l 1
 140 500 l 1
 180 540 l 1
 20 540 l 1
 60 660 l 1
EndSplineSet
EndChar

StartChar: J
Encoding: 74 74 88
Width: 420
VWidth: 0
Flags: W
HStem: -140 120<-30 143.781> 540 120<60 210 290 360>
VStem: 170 120<6.21878 280 400 500>
LayerCount: 2
Fore
SplineSet
60 660 m 1
 400 660 l 1
 360 540 l 1
 290 540 l 1
 290 60 l 2
 290 -50.4004 200.4 -140 90 -140 c 2
 -70 -140 l 1
 -30 -20 l 1
 90 -20 l 2
 134.16 -20 170 15.8398 170 60 c 2
 170 280 l 1
 110 280 l 1
 150 400 l 1
 170 400 l 1
 170 500 l 1
 210 540 l 1
 20 540 l 1
 60 660 l 1
EndSplineSet
EndChar

StartChar: L
Encoding: 76 76 89
Width: 480
VWidth: 0
Flags: W
HStem: -10 120<50 70 150 430>
VStem: 70 120<150 280 400 640>
LayerCount: 2
Fore
SplineSet
190 680 m 1
 190 150 l 1
 150 110 l 1
 470 110 l 1
 430 -10 l 1
 10 -10 l 1
 50 110 l 1
 70 110 l 1
 70 280 l 1
 10 280 l 1
 50 400 l 1
 70 400 l 1
 70 640 l 1
 190 680 l 1
EndSplineSet
EndChar

StartChar: H
Encoding: 72 72 90
Width: 590
VWidth: 0
Flags: W
HStem: -20 21G<10 103.12 400 460> 280 120<50 70 230 360> 650 20G<486.88 580>
VStem: 70 120<100 280 400 640> 400 120<10 320 400 550 550 550>
LayerCount: 2
Fore
SplineSet
190 680 m 1
 190 360 l 1
 230 400 l 1
 400 400 l 1
 400 550 l 2
 400 616.24 453.76 670 520 670 c 2
 580 670 l 1
 540 550 l 1
 520 550 l 1
 520 10 l 1
 400 -30 l 1
 400 320 l 1
 360 280 l 1
 190 280 l 1
 190 100 l 2
 190 33.7598 136.24 -20 70 -20 c 2
 10 -20 l 1
 50 100 l 1
 70 100 l 1
 70 280 l 1
 10 280 l 1
 50 400 l 1
 70 400 l 1
 70 640 l 1
 190 680 l 1
EndSplineSet
EndChar

StartChar: R
Encoding: 82 82 91
Width: 570
VWidth: 0
Flags: W
HStem: -20 21G<10 103.12 466.88 526.667> 280 120<50 70 230 360 360 360> 540 120<50 110 190 352.233>
VStem: 70 120<100 280 400 500> 360 120<460 500 500 532.233> 380 120<100 279.169>
LayerCount: 2
Fore
SplineSet
50 660 m 1xf8
 320 660 l 2
 408.32 660 480 588.32 480 500 c 2
 480 460 l 1xf8
 410.562 390.562 l 1
 462.873 370.271 500 319.451 500 260 c 2
 500 100 l 1
 560 100 l 1
 520 -20 l 1
 500 -20 l 2
 433.76 -20 380 33.7598 380 100 c 2
 380 260 l 2xf4
 380 271.04 371.04 280 360 280 c 2
 190 280 l 1
 190 100 l 2
 190 33.7598 136.24 -20 70 -20 c 2
 10 -20 l 1
 50 100 l 1
 70 100 l 1
 70 280 l 1
 10 280 l 1
 50 400 l 1
 70 400 l 1
 70 500 l 1
 110 540 l 1
 10 540 l 1
 50 660 l 1xf8
190 540 m 1
 190 360 l 1
 230 400 l 1
 360 400 l 1
 360 500 l 2
 360 522.08 342.08 540 320 540 c 2
 190 540 l 1
EndSplineSet
EndChar

StartChar: Q
Encoding: 81 81 92
Width: 570
VWidth: 0
Flags: W
HStem: -140 120<360 500> -20 120<229.794 310> 550 120<270 373.781>
VStem: 70 120<139.794 280 400 520> 400 120<100 523.781>
LayerCount: 2
Fore
SplineSet
270 670 m 1
 320 670 l 2
 430.4 670 520 580.4 520 470 c 2
 520 100 l 1
 360 -20 l 1
 540 -20 l 1
 500 -140 l 1
 270 -140 l 1
 310 -20 l 1
 290 -20 l 2
 168.56 -20 70 78.5596 70 200 c 2
 70 280 l 1
 10 280 l 1
 50 400 l 1
 70 400 l 1
 70 520 l 1
 270 670 l 1
190 550 m 1
 190 200 l 2
 190 144.8 234.8 100 290 100 c 2
 400 100 l 1
 400 470 l 2
 400 514.16 364.16 550 320 550 c 2
 190 550 l 1
EndSplineSet
EndChar

StartChar: Ntilde
Encoding: 209 209 93
Width: 570
VWidth: 0
Flags: W
HStem: -20 21<10 103.12 400 460> 540 120<50 70 70 70 290 365.398>
VStem: 70 120<100 280 400 540> 400 120<10 504.305>
LayerCount: 2
Fore
SplineSet
400.303 794.56 m 1
 459.644 785.691 l 1
 387 705.549 l 1
 208.978 732.154 l 1
 184.763 705.44 l 1
 125.422 714.309 l 1
 198.065 794.451 l 1
 376.089 767.846 l 1
 400.303 794.56 l 1
EndSplineSet
Refer: 85 78 N 1 0 0 1 0 0 2
EndChar

StartChar: asciitilde
Encoding: 126 126 94
Width: 494
VWidth: 0
Flags: W
LayerCount: 2
Fore
SplineSet
355 305 m 1
 414 296 l 1
 342 216 l 1
 164 243 l 1
 139 216 l 1
 80 225 l 1
 153 305 l 1
 331 278 l 1
 355 305 l 1
EndSplineSet
EndChar

StartChar: dieresis
Encoding: 168 168 96
Width: 445
VWidth: 0
Flags: W
HStem: 570 120<80 200 245 365>
VStem: 80 120<570 690> 245 120<570 690>
LayerCount: 2
Fore
SplineSet
80 690 m 5
 200 690 l 5
 200 570 l 5
 80 570 l 5
 80 690 l 5
245 690 m 5
 365 690 l 5
 365 570 l 5
 245 570 l 5
 245 690 l 5
EndSplineSet
EndChar

StartChar: T
Encoding: 84 84 97
Width: 500
VWidth: 0
Flags: W
HStem: -30 21G<180 240> 540 120<50 220 300 450>
VStem: 180 120<10 280 400 500>
LayerCount: 2
Fore
SplineSet
50 660 m 1
 490 660 l 1
 450 540 l 1
 300 540 l 1
 300 10 l 1
 180 -30 l 1
 180 280 l 1
 120 280 l 1
 160 400 l 1
 180 400 l 1
 180 500 l 1
 220 540 l 1
 10 540 l 1
 50 660 l 1
EndSplineSet
EndChar

StartChar: U
Encoding: 85 85 98
Width: 600
VWidth: 0
Flags: W
HStem: -20 120<205.032 300 512.202 550> 650 20G<43.3333 103.12>
VStem: 70 120<115.032 280 400 550 550 550> 390 120<100.306 120 120 640>
LayerCount: 2
Fore
SplineSet
510 680 m 1
 510 120 l 2
 510 108.96 518.96 100 530 100 c 2
 590 100 l 1
 550 -20 l 1
 530 -20 l 2
 474.879 -20 427.175 11.9092 404.344 58.25 c 1
 300 -20 l 1
 250 -20 l 2
 150.64 -20 70 60.6396 70 160 c 2
 70 280 l 1
 10 280 l 1
 50 400 l 1
 70 400 l 1
 70 550 l 1
 10 550 l 1
 50 670 l 1
 70 670 l 2
 136.24 670 190 616.24 190 550 c 2
 190 160 l 2
 190 126.88 216.88 100 250 100 c 2
 391.438 100 l 1
 390.501 106.534 390 113.208 390 120 c 2
 390 640 l 1
 510 680 l 1
EndSplineSet
EndChar

StartChar: X
Encoding: 88 88 112
Width: 480
VWidth: 0
Flags: W
HStem: -30 21G<40 100 320 380> 280 120<184.378 299.693>
VStem: 40 120<10 240> 60 120<406.35 440 440 640> 300 120<440 640> 320 120<10 275.216>
LayerCount: 2
Fore
SplineSet
180 680 m 1xd0
 180 440 l 2
 180 417.92 197.92 400 220 400 c 2
 280 400 l 2
 286.772 400 293.448 399.568 300 398.75 c 1
 300 640 l 1
 420 680 l 1
 420 440 l 1xd8
 359.094 379.094 l 1
 407.409 351.548 440 299.56 440 240 c 2
 440 10 l 1
 320 -30 l 1
 320 240 l 2
 320 262.08 302.08 280 280 280 c 2
 220 280 l 2
 198.784 280 178.533 284.146 160 291.656 c 1
 160 10 l 1
 40 -30 l 1
 40 240 l 1xe4
 117.344 317.344 l 1
 82.3096 346.701 60 390.75 60 440 c 2
 60 640 l 1
 180 680 l 1xd0
EndSplineSet
EndChar

StartChar: three
Encoding: 51 51 113
Width: 460
VWidth: 0
Flags: W
HStem: -220 120<60 220> 130 120<100 279.693> 390 120<80 272.233>
VStem: 280 120<270 382.233> 300 120<-70 125.271>
LayerCount: 2
Fore
SplineSet
80 510 m 1xf0
 240 510 l 2
 328.32 510 400 438.32 400 350 c 2
 400 270 l 1xf0
 338.844 229.219 l 1
 387.292 201.709 420 149.659 420 90 c 2
 420 -70 l 1
 220 -220 l 1
 20 -220 l 1
 60 -100 l 1
 300 -100 l 1
 300 90 l 2xe8
 300 112.08 282.08 130 260 130 c 2
 60 130 l 1
 100 250 l 1
 260 250 l 2
 266.772 250 273.448 249.568 280 248.75 c 1
 280 350 l 2
 280 372.08 262.08 390 240 390 c 2
 40 390 l 1
 80 510 l 1xf0
EndSplineSet
Validated: 1
EndChar

StartChar: dotlessi
Encoding: 305 305 115
Width: 300
VWidth: 0
Flags: W
HStem: -20 21G<181.36 246.667> 500 20G<53.3333 113.12>
VStem: 80 120<102.177 400 400 400>
LayerCount: 2
Fore
SplineSet
60 520 m 1
 80 520 l 2
 146.24 520 200 466.24 200 400 c 2
 200 120 l 2
 200 108.96 208.96 100 220 100 c 2
 280 100 l 1
 240 -20 l 1
 220 -20 l 2
 142.72 -20 80 42.7197 80 120 c 2
 80 400 l 1
 20 400 l 1
 60 520 l 1
EndSplineSet
EndChar

StartChar: four
Encoding: 52 52 118
Width: 460
VWidth: 0
Flags: W
HStem: -10 120<50 70 150 230 390 410>
VStem: 70 120<150 320> 270 120<-160 -10 110 490>
LayerCount: 2
Fore
SplineSet
390 530 m 1
 390 110 l 1
 450 110 l 1
 410 -10 l 1
 390 -10 l 1
 390 -160 l 1
 270 -200 l 1
 270 30 l 1
 230 -10 l 1
 10 -10 l 1
 50 110 l 1
 70 110 l 1
 70 320 l 1
 190 360 l 1
 190 150 l 1
 150 110 l 1
 270 110 l 1
 270 490 l 1
 390 530 l 1
EndSplineSet
EndChar

StartChar: Y
Encoding: 89 89 119
Width: 540
VWidth: 0
Flags: W
HStem: -220 120<130 367.823> -20 120<205.032 280> 650 20G<43.3333 103.12>
VStem: 70 120<115.032 280 400 550 550 550> 370 120<-97.823 47.5 100 640>
LayerCount: 2
Fore
SplineSet
490 680 m 1
 490 -80 l 2
 490 -157.28 427.28 -220 350 -220 c 2
 90 -220 l 1
 130 -100 l 1
 350 -100 l 2
 361.04 -100 370 -91.04 370 -80 c 2
 370 47.5 l 1
 280 -20 l 1
 250 -20 l 2
 150.64 -20 70 60.6396 70 160 c 2
 70 280 l 1
 10 280 l 1
 50 400 l 1
 70 400 l 1
 70 550 l 1
 10 550 l 1
 50 670 l 1
 70 670 l 2
 136.24 670 190 616.24 190 550 c 2
 190 160 l 2
 190 126.88 216.88 100 250 100 c 2
 370 100 l 1
 370 640 l 1
 490 680 l 1
EndSplineSet
EndChar

StartChar: Z
Encoding: 90 90 121
Width: 560
VWidth: 0
Flags: W
HStem: -10 120<280 500> 540 120<90 270>
LayerCount: 2
Fore
SplineSet
90 660 m 1
 540 660 l 1
 198.312 72.9688 l 1
 280 110 l 1
 540 110 l 1
 500 -10 l 1
 10 -10 l 1
 351.688 577.031 l 1
 270 540 l 1
 50 540 l 1
 90 660 l 1
EndSplineSet
EndChar

StartChar: zero
Encoding: 48 48 122
Width: 460
VWidth: 0
Flags: W
HStem: -20 120<177.768 250> 400 120<210 282.233>
VStem: 50 120<107.767 400> 290 120<100 392.233>
LayerCount: 2
Fore
SplineSet
210 520 m 1
 250 520 l 2
 338.32 520 410 448.32 410 360 c 2
 410 100 l 1
 250 -20 l 1
 210 -20 l 2
 121.68 -20 50 51.6797 50 140 c 2
 50 400 l 1
 210 520 l 1
170 400 m 1
 170 140 l 2
 170 117.92 187.92 100 210 100 c 2
 290 100 l 1
 290 360 l 2
 290 382.08 272.08 400 250 400 c 2
 170 400 l 1
EndSplineSet
Validated: 1
EndChar

StartChar: six
Encoding: 54 54 123
Width: 460
VWidth: 0
Flags: W
HStem: -20 120<177.768 250> 550 120<209.794 290>
VStem: 50 120<107.767 320 380 510.206> 290 120<100 312.233>
LayerCount: 2
Fore
SplineSet
270 670 m 6
 330 670 l 5
 290 550 l 5
 270 550 l 6
 214.8 550 170 505.2 170 450 c 2
 170 380 l 1
 250 440 l 1
 338.32 440 410 368.32 410 280 c 2
 410 100 l 1
 250 -20 l 1
 210 -20 l 2
 121.68 -20 50 51.6797 50 140 c 2
 50 450 l 2
 50 571.44 148.56 670 270 670 c 6
170 320 m 1
 170 140 l 2
 170 117.92 187.92 100 210 100 c 2
 290 100 l 1
 290 280 l 2
 290 302.08 272.08 320 250 320 c 2
 170 320 l 1
EndSplineSet
Validated: 1
EndChar

StartChar: eight
Encoding: 56 56 124
Width: 460
VWidth: 0
Flags: W
HStem: -20 120<177.768 250> 280 120<194.014 265.986> 550 120<210 282.233>
VStem: 50 120<107.767 260 404.79 550> 290 120<100 275.21 420 542.232>
LayerCount: 2
Fore
SplineSet
210 670 m 5
 250 670 l 6
 338.32 670 410 598.32 410 510 c 6
 410 420 l 5
 339.219 372.812 l 5
 381.906 344.069 410 295.296 410 240 c 6
 410 100 l 5
 250 -20 l 5
 210 -20 l 6
 121.68 -20 50 51.6797 50 140 c 6
 50 260 l 5
 120.781 307.188 l 5
 78.0938 335.931 50 384.704 50 440 c 6
 50 550 l 5
 210 670 l 5
170 550 m 5
 170 440 l 6
 170 417.92 187.92 400 210 400 c 6
 250 400 l 6
 263.811 400 277.214 398.264 290 394.969 c 5
 290 510 l 6
 290 532.08 272.08 550 250 550 c 6
 170 550 l 5
170 285.031 m 5
 170 140 l 6
 170 117.92 187.92 100 210 100 c 6
 290 100 l 5
 290 240 l 6
 290 262.08 272.08 280 250 280 c 6
 210 280 l 6
 196.189 280 182.786 281.736 170 285.031 c 5
EndSplineSet
Validated: 1
EndChar

StartChar: nine
Encoding: 57 57 125
Width: 460
VWidth: 0
Flags: W
HStem: -220 120<170 250.206> -20 21G<165.84 236.667> 400 120<210 282.233>
VStem: 50 120<107.767 400> 290 120<-60.2056 40 100 392.233>
LayerCount: 2
Fore
SplineSet
210 520 m 1
 250 520 l 2
 338.32 520 410 448.32 410 360 c 2
 410 0 l 2
 410 -121.44 311.44 -220 190 -220 c 2
 130 -220 l 1
 170 -100 l 1
 190 -100 l 2
 245.2 -100 290 -55.2002 290 0 c 2
 290 40 l 1
 210 -20 l 1
 121.68 -20 50 51.6797 50 140 c 2
 50 400 l 1
 210 520 l 1
170 400 m 1
 170 140 l 2
 170 117.92 187.92 100 210 100 c 2
 290 100 l 1
 290 360 l 2
 290 382.08 272.08 400 250 400 c 2
 170 400 l 1
EndSplineSet
Validated: 1
EndChar

StartChar: five
Encoding: 53 53 126
Width: 460
VWidth: 0
Flags: W
HStem: -220 120<60 220> 390 120<180 360>
VStem: 60 120<190 390> 300 120<-70 122.233>
LayerCount: 2
Fore
SplineSet
180 510 m 1
 400 510 l 1
 360 390 l 1
 180 390 l 1
 180 190 l 1
 260 250 l 1
 348.32 250 420 178.32 420 90 c 2
 420 -70 l 1
 380 -100 l 1
 220 -220 l 1
 20 -220 l 1
 60 -100 l 1
 300 -100 l 1
 300 90 l 2
 300 112.08 282.08 130 260 130 c 2
 60 130 l 1
 60 420 l 1
 180 510 l 1
EndSplineSet
Validated: 1
EndChar

StartChar: one
Encoding: 49 49 127
Width: 460
VWidth: 0
Flags: W
HStem: -10 120<80 180 260 380> 390 120<100 220 300 320>
VStem: 180 120<150 350>
LayerCount: 2
Fore
SplineSet
100 510 m 5
 360 510 l 5
 320 390 l 5
 300 390 l 5
 300 150 l 5
 260 110 l 5
 420 110 l 5
 380 -10 l 5
 40 -10 l 5
 80 110 l 5
 180 110 l 5
 180 350 l 5
 220 390 l 5
 60 390 l 5
 100 510 l 5
EndSplineSet
Validated: 1
EndChar

StartChar: two
Encoding: 50 50 128
Width: 460
VWidth: 0
Flags: W
HStem: -10 120<216 386> 400 120<206 270.968>
VStem: 286 120<292.782 385.631>
LayerCount: 2
Fore
SplineSet
206 520 m 5
 226 520 l 6
 325.36 520 406 439.36 406 340 c 4
 406 298.904 392.178 261.028 368.969 230.719 c 6
 294.781 133.625 l 5
 216 110 l 5
 276.719 110 l 5
 426 110 l 5
 386 -10 l 5
 36 -10 l 5
 34 -10 l 5
 273.656 303.562 l 6
 281.39 313.665 286 326.304 286 340 c 4
 286 373.12 259.12 400 226 400 c 6
 166 400 l 5
 166 360 l 5
 46 320 l 5
 46 400 l 5
 206 520 l 5
EndSplineSet
Validated: 3073
EndChar

StartChar: seven
Encoding: 55 55 129
Width: 460
VWidth: 0
Flags: W
HStem: 400 110<101.938 291.938 362.875 381.938>
LayerCount: 2
Fore
SplineSet
101.938 510 m 1
 421.938 510 l 1
 381.938 400 l 1
 362.875 400 l 1
 158.906 -160.875 l 1
 25 -199.125 l 1
 234.125 375.906 l 1
 291.938 400 l 1
 61.9375 400 l 1
 101.938 510 l 1
EndSplineSet
Validated: 1
EndChar

StartChar: slash
Encoding: 47 47 130
Width: 430
VWidth: 0
Flags: W
HStem: -20 21G<10 128.696> 650 20G<301.304 420>
LayerCount: 2
Fore
SplineSet
310 670 m 5
 420 670 l 5
 120 -20 l 5
 10 -20 l 5
 310 670 l 5
EndSplineSet
EndChar

StartChar: percent
Encoding: 37 37 131
Width: 950
VWidth: 0
Flags: W
HStem: -20 120<657.767 730> 240 120<690 762.233> 290 120<187.767 260> 550 120<220 292.233>
VStem: 60 120<417.767 550> 300 120<410 542.233> 530 120<107.767 240> 770 120<100 232.233>
LayerCount: 2
Fore
SplineSet
220 670 m 1xbf
 260 670 l 2
 348.32 670 420 598.32 420 510 c 2
 420 410 l 1
 260 290 l 1
 220 290 l 2
 131.68 290 60 361.68 60 450 c 2
 60 550 l 1
 220 670 l 1xbf
180 550 m 1
 180 450 l 2
 180 427.92 197.92 410 220 410 c 2
 300 410 l 1
 300 510 l 2
 300 532.08 282.08 550 260 550 c 2
 180 550 l 1
690 360 m 1xdf
 730 360 l 2
 818.32 360 890 288.32 890 200 c 2
 890 100 l 1
 730 -20 l 1
 690 -20 l 2
 601.68 -20 530 51.6797 530 140 c 2
 530 240 l 1
 690 360 l 1xdf
650 240 m 1
 650 140 l 2
 650 117.92 667.92 100 690 100 c 2
 770 100 l 1
 770 200 l 2
 770 222.08 752.08 240 730 240 c 2
 650 240 l 1
570 670 m 5
 680 670 l 5
 380 -20 l 5
 270 -20 l 5
 570 670 l 5
EndSplineSet
EndChar

StartChar: ordmasculine
Encoding: 186 186 132
Width: 420
VWidth: 0
Flags: W
HStem: 350 100<155.025 250> 570 100<170 264.975>
VStem: 50 100<455.025 570> 270 100<450 564.975>
LayerCount: 2
Fore
SplineSet
170 670 m 1
 230 670 l 2
 307.28 670 370 607.28 370 530 c 2
 370 450 l 1
 250 350 l 1
 190 350 l 2
 112.72 350 50 412.72 50 490 c 2
 50 570 l 1
 170 670 l 1
150 570 m 1
 150 490 l 2
 150 467.92 167.92 450 190 450 c 2
 270 450 l 1
 270 530 l 2
 270 552.08 252.08 570 230 570 c 2
 150 570 l 1
EndSplineSet
EndChar

StartChar: perthousand
Encoding: 8240 8240 133
Width: 1350
VWidth: 0
Flags: W
HStem: -20 120<657.767 730 1057.77 1130> 240 120<690 762.233 1090 1162.23> 290 120<187.767 260> 550 120<220 292.233>
VStem: 60 120<417.767 550> 300 120<410 542.233> 530 120<107.767 240> 770 120<100 232.233> 930 120<107.767 240> 1170 120<100 232.233>
LayerCount: 2
Fore
SplineSet
220 670 m 1xbfc0
 260 670 l 2
 348.32 670 420 598.32 420 510 c 2
 420 410 l 1
 260 290 l 1
 220 290 l 2
 131.68 290 60 361.68 60 450 c 2
 60 550 l 1
 220 670 l 1xbfc0
180 550 m 1
 180 450 l 2
 180 427.92 197.92 410 220 410 c 2
 300 410 l 1
 300 510 l 2
 300 532.08 282.08 550 260 550 c 2
 180 550 l 1
690 360 m 1xdfc0
 730 360 l 2
 818.32 360 890 288.32 890 200 c 2
 890 100 l 1
 730 -20 l 1
 690 -20 l 2
 601.68 -20 530 51.6797 530 140 c 2
 530 240 l 1
 690 360 l 1xdfc0
650 240 m 1
 650 140 l 2
 650 117.92 667.92 100 690 100 c 2
 770 100 l 1
 770 200 l 2
 770 222.08 752.08 240 730 240 c 2
 650 240 l 1
570 670 m 1
 680 670 l 1
 380 -20 l 1
 270 -20 l 1
 570 670 l 1
1090 360 m 1
 1130 360 l 2
 1218.32 360 1290 288.32 1290 200 c 2
 1290 100 l 1
 1130 -20 l 1
 1090 -20 l 2
 1001.68 -20 930 51.6797 930 140 c 2
 930 240 l 1
 1090 360 l 1
1050 240 m 1
 1050 140 l 2
 1050 117.92 1067.92 100 1090 100 c 2
 1170 100 l 1
 1170 200 l 2
 1170 222.08 1152.08 240 1130 240 c 2
 1050 240 l 1
EndSplineSet
EndChar

StartChar: Euro
Encoding: 8364 8364 134
Width: 640
VWidth: 0
Flags: W
HStem: -20 120<299.794 430> 220 60<80 140 260 470> 320 60<80 140 260 470> 550 120<340 443.781>
VStem: 140 120<139.794 220 280 320 380 520> 470 120<100 120 450 523.78>
LayerCount: 2
Fore
SplineSet
470 120 m 1
 590 160 l 1
 590 100 l 1
 430 -20 l 1
 360 -20 l 2
 238.56 -20 140 78.5596 140 200 c 2
 140 220 l 1
 40 220 l 1
 80 280 l 1
 140 280 l 1
 140 320 l 1
 40 320 l 1
 80 380 l 1
 140 380 l 1
 140 520 l 1
 340 670 l 1
 390 670 l 2
 500.4 670 590 580.4 590 470 c 2
 590 450 l 1
 470 410 l 1
 470 470 l 2
 470 514.158 434.16 550 390 550 c 2
 260 550 l 1
 260 380 l 1
 510 380 l 1
 470 320 l 1
 260 320 l 1
 260 280 l 1
 510 280 l 1
 470 220 l 1
 260 220 l 1
 260 200 l 2
 260 144.8 304.8 100 360 100 c 2
 470 100 l 1
 470 120 l 1
EndSplineSet
EndChar

StartChar: backslash
Encoding: 92 92 135
Width: 430
VWidth: 0
Flags: W
HStem: -20 21G<301.304 420> 650 20G<10 128.696>
LayerCount: 2
Fore
SplineSet
120 670 m 1
 420 -20 l 1
 310 -20 l 1
 10 670 l 1
 120 670 l 1
EndSplineSet
EndChar

StartChar: numbersign
Encoding: 35 35 136
Width: 630
VWidth: 0
Flags: W
HStem: -30 21G<103.846 155 323.846 375> 100 100<80 125 246.531 345 466.531 510> 310 100<120 165.375 286.938 385.375 506.906 550>
LayerCount: 2
Fore
SplineSet
310 530 m 1
 286.938 410 l 1
 404.625 410 l 1
 420 490 l 1
 530 530 l 1
 506.906 410 l 1
 590 410 l 1
 550 310 l 1
 487.688 310 l 1
 466.531 200 l 1
 550 200 l 1
 510 100 l 1
 447.312 100 l 1
 430 10 l 1
 320 -30 l 1
 345 100 l 1
 227.312 100 l 1
 210 10 l 1
 100 -30 l 1
 125 100 l 1
 40 100 l 1
 80 200 l 1
 144.219 200 l 1
 165.375 310 l 1
 80 310 l 1
 120 410 l 1
 184.625 410 l 1
 200 490 l 1
 310 530 l 1
267.688 310 m 1
 246.531 200 l 1
 364.219 200 l 1
 385.375 310 l 1
 267.688 310 l 1
EndSplineSet
EndChar

StartChar: uniFB00
Encoding: 64256 64256 137
Width: 630
VWidth: 0
Flags: W
HStem: -30 21G<80 140 360 420> 400 120<60 80 240 320 520 590>
VStem: 80 120<10 400 520 570> 360 120<10 400 520 570>
LayerCount: 2
Fore
SplineSet
260 750 m 1
 326.24 750 380 696.24 380 630 c 2
 380 610 l 1
 260 570 l 1
 260 630 l 1
 200 630 l 1
 200 480 l 1
 240 520 l 1
 360 520 l 1
 360 570 l 1
 540 750 l 1
 617.28 750 680 687.28 680 610 c 1
 560 570 l 1
 560 610 l 2
 560 621.04 551.04 630 540 630 c 2
 480 630 l 1
 480 480 l 1
 520 520 l 1
 630 520 l 1
 590 400 l 1
 480 400 l 1
 480 10 l 1
 360 -30 l 1
 360 440 l 1
 320 400 l 1
 200 400 l 1
 200 10 l 1
 80 -30 l 1
 80 400 l 1
 20 400 l 1
 60 520 l 1
 80 520 l 1
 80 570 l 1
 260 750 l 1
EndSplineSet
Ligature2: "'liga' Standard Ligatures in Latin lookup 0-1" f f
LCarets2: 1 280 
EndChar

StartChar: uniFB01
Encoding: 64257 64257 138
Width: 610
VWidth: 0
Flags: W
HStem: -20 21G<80 140 491.36 556.667> 400 120<60 80 240 350> 570 120<400 510>
VStem: 80 120<10 400 520 570> 390 120<102.177 438.474> 400 110<570 690>
LayerCount: 2
Fore
SplineSet
260 750 m 1xf8
 326.24 750 380 696.24 380 630 c 2
 380 610 l 1
 260 570 l 1
 260 630 l 1
 200 630 l 1
 200 480 l 1
 240 520 l 1
 390 520 l 2
 456.24 520 510 466.24 510 400 c 2
 510 120 l 2
 510 108.96 518.96 100 530 100 c 2
 590 100 l 1
 550 -20 l 1
 530 -20 l 2
 452.72 -20 390 42.7197 390 120 c 2
 390 400 l 1
 390 440 l 1
 350 400 l 1
 200 400 l 1
 200 10 l 1
 80 -30 l 1
 80 400 l 1
 20 400 l 1
 60 520 l 1
 80 520 l 1
 80 570 l 1
 260 750 l 1xf8
400 690 m 1xf4
 510 690 l 1
 510 570 l 1
 400 570 l 1
 400 690 l 1xf4
EndSplineSet
Ligature2: "'liga' Standard Ligatures in Latin lookup 0-1" f i
LCarets2: 1 290 
EndChar

StartChar: uniFB02
Encoding: 64258 64258 139
Width: 590
VWidth: 0
Flags: W
HStem: -20 21G<80 140 471.36 536.667> 400 120<60 80 240 310> 630 120<260 330>
VStem: 80 120<10 400 520 570> 370 120<102.177 667.598>
LayerCount: 2
Fore
SplineSet
260 750 m 1
 350 750 l 2
 427.28 750 490 687.28 490 610 c 2
 490 120 l 2
 490 108.96 498.96 100 510 100 c 2
 570 100 l 1
 530 -20 l 1
 510 -20 l 2
 432.72 -20 370 42.7197 370 120 c 2
 370 570 l 1
 370 610 l 1
 370 670 l 1
 330 630 l 1
 200 630 l 1
 200 480 l 1
 240 520 l 1
 350 520 l 1
 310 400 l 1
 200 400 l 1
 200 10 l 1
 80 -30 l 1
 80 400 l 1
 20 400 l 1
 60 520 l 1
 80 520 l 1
 80 570 l 1
 260 750 l 1
EndSplineSet
LCarets2: 1 280 
Ligature2: "'liga' Standard Ligatures in Latin lookup 0-1" f l
EndChar

StartChar: uniFB05
Encoding: 64261 64261 140
Width: 590
VWidth: 0
Flags: W
HStem: -20 120<432.177 510> 400 120<60 80 290 310 470 540>
VStem: 80 120<10 400 520 570> 310 120<102.177 400 520 627.823>
LayerCount: 2
Fore
SplineSet
260 750 m 1
 290 750 l 2
 367.28 750 430 687.28 430 610 c 2
 430 480 l 1
 470 520 l 1
 580 520 l 1
 540 400 l 1
 430 400 l 1
 430 120 l 2
 430 108.96 438.96 100 450 100 c 2
 550 100 l 1
 510 -20 l 1
 450 -20 l 2
 372.72 -20 310 42.7197 310 120 c 2
 310 400 l 1
 250 400 l 1
 290 520 l 1
 310 520 l 1
 310 610 l 2
 310 621.04 301.04 630 290 630 c 2
 200 630 l 1
 200 10 l 1
 80 -30 l 1
 80 400 l 1
 20 400 l 1
 60 520 l 1
 80 520 l 1
 80 570 l 1
 260 750 l 1
EndSplineSet
LCarets2: 1 240 
Ligature2: "'liga' Standard Ligatures in Latin lookup 0-1" longs t
EndChar

StartChar: uniFB03
Encoding: 64259 64259 141
Width: 890
VWidth: 0
Flags: W
HStem: -20 21G<80 140 360 420 771.36 836.667> 400 120<60 80 240 320 520 630> 570 120<680 790>
VStem: 80 120<10 400 520 570> 360 120<10 400 520 570> 670 120<102.177 438.474> 680 110<570 690>
LayerCount: 2
Fore
SplineSet
260 750 m 1xfc
 326.24 750 380 696.24 380 630 c 2
 380 610 l 1
 260 570 l 1
 260 630 l 1
 200 630 l 1
 200 480 l 1
 240 520 l 1
 360 520 l 1
 360 570 l 1
 540 750 l 1
 606.24 750 660 696.24 660 630 c 2
 660 610 l 1
 540 570 l 1
 540 630 l 1
 480 630 l 1
 480 480 l 1
 520 520 l 1
 670 520 l 2
 736.24 520 790 466.24 790 400 c 2
 790 120 l 2
 790 108.96 798.96 100 810 100 c 2
 870 100 l 1
 830 -20 l 1
 810 -20 l 2
 732.72 -20 670 42.7197 670 120 c 2
 670 400 l 1
 670 440 l 1
 630 400 l 1
 480 400 l 1
 480 10 l 1
 360 -30 l 1
 360 440 l 1
 320 400 l 1
 200 400 l 1
 200 10 l 1
 80 -30 l 1
 80 400 l 1
 20 400 l 1
 60 520 l 1
 80 520 l 1
 80 570 l 1
 260 750 l 1xfc
680 690 m 1xfa
 790 690 l 1
 790 570 l 1
 680 570 l 1
 680 690 l 1xfa
EndSplineSet
LCarets2: 2 280 570 
Ligature2: "'liga' Standard Ligatures in Latin lookup 0-1" f f i
EndChar

StartChar: uniFB04
Encoding: 64260 64260 142
Width: 870
VWidth: 0
Flags: W
HStem: -20 21G<80 140 360 420 751.36 816.667> 400 120<60 80 240 320 520 590> 630 120<540 610>
VStem: 80 120<10 400 520 570> 360 120<10 400 520 570> 650 120<102.177 667.598>
LayerCount: 2
Fore
SplineSet
260 750 m 1
 326.24 750 380 696.24 380 630 c 2
 380 610 l 1
 260 570 l 1
 260 630 l 1
 200 630 l 1
 200 480 l 1
 240 520 l 1
 360 520 l 1
 360 570 l 1
 540 750 l 1
 630 750 l 2
 707.28 750 770 687.28 770 610 c 2
 770 120 l 2
 770 108.96 778.96 100 790 100 c 2
 850 100 l 1
 810 -20 l 1
 790 -20 l 2
 712.72 -20 650 42.7197 650 120 c 2
 650 570 l 1
 650 610 l 1
 650 670 l 1
 610 630 l 1
 480 630 l 1
 480 480 l 1
 520 520 l 1
 630 520 l 1
 590 400 l 1
 480 400 l 1
 480 10 l 1
 360 -30 l 1
 360 440 l 1
 320 400 l 1
 200 400 l 1
 200 10 l 1
 80 -30 l 1
 80 400 l 1
 20 400 l 1
 60 520 l 1
 80 520 l 1
 80 570 l 1
 260 750 l 1
EndSplineSet
LCarets2: 2 280 570 
Ligature2: "'liga' Standard Ligatures in Latin lookup 0-1" f f l
EndChar

StartChar: Ccedilla
Encoding: 199 199 143
Width: 480
VWidth: 0
Flags: W
HStem: 550 120<270 430>
VStem: 70 120<139.143 280 400 520>
LayerCount: 2
Fore
SplineSet
270 670 m 1
 470 670 l 1
 430 550 l 1
 190 550 l 1
 190 200 l 2
 190 144.8 234.8 100 290 100 c 2
 470 100 l 1
 390 -20 l 1
 340 -20 l 1
 340 -30 l 2
 340 -129.36 259.36 -210 160 -210 c 1
 160 -90 l 1
 193.12 -90 220 -63.1201 220 -30 c 1
 239.125 -14.0625 l 1
 142.193 8.91895 70 96.0742 70 200 c 2
 70 280 l 1
 10 280 l 1
 50 400 l 1
 70 400 l 1
 70 520 l 1
 270 670 l 1
EndSplineSet
EndChar

StartChar: cedilla
Encoding: 184 184 144
Width: 220
VWidth: 0
Flags: W
HStem: -210 280
VStem: 20 180<-115.776 -90>
LayerCount: 2
Fore
SplineSet
200 70 m 5
 200 -30 l 6
 200 -129.36 119.36 -210 20 -210 c 5
 20 -90 l 5
 53.1201 -90 80 -63.1201 80 -30 c 5
 200 70 l 5
EndSplineSet
Validated: 1
EndChar

StartChar: quotedbl
Encoding: 34 34 145
Width: 330
VWidth: 0
Flags: W
HStem: 550 160<40 100 200 260>
VStem: 40 60<550 578> 200 60<550 578>
LayerCount: 2
Fore
SplineSet
200 710 m 5
 300 710 l 5
 260 550 l 5
 200 550 l 5
 200 710 l 5
40 710 m 1
 140 710 l 1
 100 550 l 1
 40 550 l 1
 40 710 l 1
EndSplineSet
EndChar

StartChar: exclam
Encoding: 33 33 146
Width: 280
VWidth: 0
Flags: W
HStem: -20 120<80 200>
VStem: 80 120<-20 100 180 640>
LayerCount: 2
Fore
SplineSet
80 640 m 1
 200 680 l 1
 200 180 l 1
 80 140 l 1
 80 640 l 1
80 -20 m 1
 80 100 l 1
 200 100 l 1
 200 -20 l 1
 80 -20 l 1
EndSplineSet
Validated: 1
EndChar

StartChar: exclamdown
Encoding: 161 161 147
Width: 280
VWidth: 0
Flags: W
HStem: -30 21G<80 140> 550 120<80 200>
VStem: 80 120<10 470 550 670>
LayerCount: 2
Fore
SplineSet
80 470 m 5
 200 510 l 5
 200 10 l 5
 80 -30 l 5
 80 470 l 5
80 550 m 5
 80 670 l 5
 200 670 l 5
 200 550 l 5
 80 550 l 5
EndSplineSet
Validated: 1
EndChar

StartChar: ampersand
Encoding: 38 38 148
Width: 670
VWidth: 0
Flags: W
HStem: -20 120<187.767 330 480.811 560> 280 120<204.378 320 520 590> 550 120<240 360>
VStem: 60 120<107.767 270> 80 120<405.108 440 440 550> 360 120<100.306 120 120 280 400 490>
LayerCount: 2
Fore
SplineSet
240 670 m 1xec
 400 670 l 1
 360 550 l 1
 200 550 l 1
 200 440 l 2xec
 200 417.92 217.92 400 240 400 c 2
 360 400 l 1
 360 490 l 1
 480 550 l 1
 480 360 l 1
 520 400 l 1
 630 400 l 1
 590 280 l 1
 480 280 l 1
 480 120 l 2
 480 108.96 488.96 100 500 100 c 2
 600 100 l 1
 560 -20 l 1
 500 -20 l 2
 453.713 -20 412.648 2.50293 387.156 37.1562 c 1
 330 -20 l 1
 220 -20 l 2
 131.68 -20 60 51.6797 60 140 c 2
 60 270 l 1xf4
 134.562 319.719 l 1
 101.132 349.051 80 392.064 80 440 c 2
 80 550 l 1
 240 670 l 1xec
360 320 m 1
 320 280 l 1
 240 280 l 2
 218.784 280 198.533 284.146 180 291.656 c 1
 180 140 l 2xf4
 180 117.92 197.92 100 220 100 c 2
 361.438 100 l 1
 360.501 106.534 360 113.208 360 120 c 2
 360 320 l 1
EndSplineSet
EndChar

StartChar: at
Encoding: 64 64 149
Width: 840
VWidth: 0
Flags: W
HStem: -20 100<290.821 490> 150 100<580 620> 160 100<360 450> 390 100<360 480 480 480> 570 100<320 549.179>
VStem: 80 100<190.821 490> 260 100<260 360> 480 100<260 390 390 390> 660 100<250 459.179>
LayerCount: 2
Fore
SplineSet
320 670 m 1xdf80
 460 670 l 2
 625.6 670 760 535.6 760 370 c 2
 760 200 l 1
 660 160 l 1xbf80
 660 190 l 1
 620 150 l 1
 580 150 l 2xdf80
 542.125 150 509.127 171.086 492.156 202.156 c 1
 450 160 l 1
 360 160 l 2
 304.8 160 260 204.8 260 260 c 2xbf80
 260 360 l 1
 290 390 l 1
 260 390 l 1
 300 490 l 1
 480 490 l 2
 535.2 490 580 445.2 580 390 c 2
 580 250 l 1
 660 250 l 1
 660 370 l 2
 660 480.4 570.4 570 460 570 c 2
 286.656 570 l 1
 180 490 l 1
 180 280 l 2
 180 169.6 269.6 80 380 80 c 2
 620 80 l 1
 490 -20 l 1
 380 -20 l 2
 214.4 -20 80 114.4 80 280 c 2
 80 490 l 1
 320 670 l 1xdf80
360 390 m 1
 360 260 l 1
 480 260 l 1
 480 390 l 1
 360 390 l 1
EndSplineSet
Validated: 3073
EndChar

StartChar: parenleft
Encoding: 40 40 150
Width: 360
VWidth: 0
Flags: W
HStem: -180 120<196.219 270> 630 120<250 310>
VStem: 50 120<-33.7812 600>
LayerCount: 2
Fore
SplineSet
250 750 m 1
 350 750 l 1
 310 630 l 1
 170 630 l 1
 170 20 l 2
 170 -24.1602 205.84 -60 250 -60 c 2
 350 -60 l 1
 270 -180 l 1
 250 -180 l 2
 139.6 -180 50 -90.4004 50 20 c 2
 50 600 l 1
 250 750 l 1
EndSplineSet
EndChar

StartChar: parenright
Encoding: 41 41 151
Width: 360
VWidth: 0
Flags: W
HStem: -180 120<50 110> 630 120<90 163.781>
VStem: 190 120<-30 603.781>
LayerCount: 2
Fore
SplineSet
110 -180 m 1
 10 -180 l 1
 50 -60 l 1
 190 -60 l 1
 190 550 l 2
 190 594.16 154.16 630 110 630 c 2
 10 630 l 1
 90 750 l 1
 110 750 l 2
 220.4 750 310 660.4 310 550 c 2
 310 -30 l 1
 110 -180 l 1
EndSplineSet
EndChar

StartChar: bracketleft
Encoding: 91 91 152
Width: 380
VWidth: 0
Flags: W
HStem: -180 120<50 70 150 330> 630 120<90 110 190 330>
VStem: 70 120<-20 590>
LayerCount: 2
Fore
SplineSet
90 750 m 1
 370 750 l 1
 330 630 l 1
 190 630 l 1
 190 -20 l 1
 150 -60 l 1
 370 -60 l 1
 330 -180 l 1
 10 -180 l 1
 50 -60 l 1
 70 -60 l 1
 70 590 l 1
 110 630 l 1
 50 630 l 1
 90 750 l 1
EndSplineSet
EndChar

StartChar: bracketright
Encoding: 93 93 153
Width: 380
VWidth: 0
Flags: W
HStem: -180 120<50 190 270 290> 630 120<50 230 310 330>
VStem: 190 120<-20 590>
LayerCount: 2
Fore
SplineSet
290 -180 m 1
 10 -180 l 1
 50 -60 l 1
 190 -60 l 1
 190 590 l 1
 230 630 l 1
 10 630 l 1
 50 750 l 1
 370 750 l 1
 330 630 l 1
 310 630 l 1
 310 -20 l 1
 270 -60 l 1
 330 -60 l 1
 290 -180 l 1
EndSplineSet
EndChar

StartChar: plus
Encoding: 43 43 154
Width: 520
VWidth: 0
Flags: W
HStem: 210 100<80 210 310 440>
VStem: 210 100<80 210 310 440>
LayerCount: 2
Fore
SplineSet
310 210 m 1
 310 80 l 1
 210 80 l 1
 210 210 l 1
 80 210 l 1
 80 310 l 1
 210 310 l 1
 210 440 l 1
 310 440 l 1
 310 310 l 1
 440 310 l 1
 440 210 l 1
 310 210 l 1
EndSplineSet
Validated: 1
EndChar

StartChar: dollar
Encoding: 36 36 155
Width: 570
VWidth: 0
Flags: W
HStem: -20 120<195.266 220 220 255 315 350> 280 120<207.767 255 315 382.233> 550 120<315 367.823>
VStem: 60 120<113.951 200> 80 120<407.767 520> 255 60<-100 -20 100 280 400 550 670 730> 370 120<490 547.823> 390 120<100 272.233>
LayerCount: 2
Fore
SplineSet
315 750 m 1xec
 315 670 l 1
 350 670 l 2
 427.28 670 490 607.28 490 530 c 2
 490 490 l 1
 370 440 l 1
 370 530 l 2xee
 370 541.04 361.04 550 350 550 c 2
 315 550 l 1
 315 400 l 1
 350 400 l 2
 438.32 400 510 328.32 510 240 c 2
 510 100 l 1
 350 -20 l 1
 315 -20 l 1
 315 -100 l 1
 255 -120 l 1
 255 -20 l 1
 240 -20 l 1
 220 -20 l 1
 220 -18.875 l 1
 130.041 -8.91602 60 67.4004 60 160 c 2
 60 200 l 1
 180 250 l 1
 180 160 l 2xf5
 180 126.88 206.88 100 240 100 c 2
 255 100 l 1
 255 280 l 1
 240 280 l 2
 151.68 280 80 351.68 80 440 c 2
 80 520 l 1
 255 651.25 l 1
 255 730 l 1
 315 750 l 1xec
200 550 m 1
 200 440 l 2
 200 417.92 217.92 400 240 400 c 2
 255 400 l 1
 255 550 l 1
 200 550 l 1
315 280 m 1
 315 100 l 1
 390 100 l 1
 390 240 l 2xe5
 390 262.08 372.08 280 350 280 c 2
 315 280 l 1
EndSplineSet
EndChar

StartChar: plusminus
Encoding: 177 177 156
Width: 520
VWidth: 0
Flags: W
HStem: 0 100<80 440> 270 100<80 210 310 440>
VStem: 210 100<140 270 370 500>
LayerCount: 2
Fore
SplineSet
310 270 m 1
 310 140 l 1
 210 140 l 1
 210 270 l 1
 80 270 l 1
 80 370 l 1
 210 370 l 1
 210 500 l 1
 310 500 l 1
 310 370 l 1
 440 370 l 1
 440 270 l 1
 310 270 l 1
80 100 m 1
 440 100 l 1
 440 0 l 1
 80 0 l 1
 80 100 l 1
EndSplineSet
Validated: 1
EndChar

StartChar: question
Encoding: 63 63 157
Width: 540
VWidth: 0
Flags: W
HStem: -20 120<190 310> 550 120<200 353.781>
VStem: 40 120<440 550> 190 120<-20 100 180 230> 380 120<470 523.781>
LayerCount: 2
Fore
SplineSet
200 670 m 1
 300 670 l 2
 410.4 670 500 580.4 500 470 c 2
 500 420 l 1
 310 230 l 1
 310 180 l 1
 190 140 l 1
 190 280 l 1
 380 470 l 1
 380 514.16 344.16 550 300 550 c 2
 160 550 l 1
 160 440 l 1
 40 400 l 1
 40 550 l 1
 200 670 l 1
190 100 m 1
 310 100 l 1
 310 -20 l 1
 190 -20 l 1
 190 100 l 1
EndSplineSet
Validated: 1
EndChar

StartChar: questiondown
Encoding: 191 191 158
Width: 540
VWidth: 0
Flags: W
HStem: -20 120<186.219 340> 550 120<230 350>
VStem: 40 120<126.219 180> 230 120<420 470 550 670> 380 120<100 210>
LayerCount: 2
Fore
SplineSet
340 -20 m 1
 240 -20 l 2
 129.6 -20 40 69.5996 40 180 c 2
 40 230 l 1
 230 420 l 1
 230 470 l 1
 350 510 l 1
 350 370 l 1
 160 180 l 1
 160 135.84 195.84 100 240 100 c 2
 380 100 l 1
 380 210 l 1
 500 250 l 1
 500 100 l 1
 340 -20 l 1
350 550 m 1
 230 550 l 1
 230 670 l 1
 350 670 l 1
 350 550 l 1
EndSplineSet
Validated: 1
EndChar

StartChar: less
Encoding: 60 60 159
Width: 530
VWidth: 0
Flags: W
HStem: -20 21G<414.762 450> 500 20G<415.36 450>
LayerCount: 2
Fore
SplineSet
450 520 m 1
 450 404.531 l 1
 204.25 262.656 l 1
 160 250 l 1
 191.844 240.906 l 1
 450 95.4688 l 1
 450 -20 l 1
 80 190 l 1
 80 190.906 l 1
 80 305.469 l 1
 80 306.375 l 1
 450 520 l 1
EndSplineSet
EndChar

StartChar: greater
Encoding: 62 62 160
Width: 530
VWidth: 0
Flags: W
HStem: -20 21G<80 115.238> 500 20G<80 114.64>
LayerCount: 2
Fore
SplineSet
80 520 m 1
 450 306.375 l 1
 450 305.469 l 1
 450 190.906 l 1
 450 190 l 1
 80 -20 l 1
 80 95.4688 l 1
 338.156 240.906 l 1
 370 250 l 1
 325.75 262.656 l 1
 80 404.531 l 1
 80 520 l 1
EndSplineSet
EndChar

StartChar: bar
Encoding: 124 124 161
Width: 240
VWidth: 0
Flags: W
VStem: 80 80<-170 710>
LayerCount: 2
Fore
SplineSet
80 -170 m 1
 80 710 l 1
 160 710 l 1
 160 -170 l 1
 80 -170 l 1
EndSplineSet
EndChar

StartChar: multiply
Encoding: 215 215 162
Width: 542
VWidth: 0
Flags: W
LayerCount: 2
Fore
SplineSet
342 260 m 1
 462 140 l 1
 391 69 l 1
 271 189 l 1
 151 69 l 1
 80 140 l 1
 200 260 l 1
 80 380 l 1
 151 451 l 1
 271 331 l 1
 391 451 l 1
 462 380 l 1
 342 260 l 1
EndSplineSet
EndChar

StartChar: asterisk
Encoding: 42 42 163
Width: 598
VWidth: 0
Flags: W
HStem: 649 20G<249 349>
VStem: 239 120<159 316.941 549 639 639 639 639 678.706>
LayerCount: 2
Fore
SplineSet
269 669 m 5
 329 669 l 5
 359 639 l 5
 359 549 l 5
 342 474 l 5
 399 526 l 5
 477 571 l 5
 518 560 l 5
 548 508 l 5
 537 467 l 5
 459 422 l 5
 386 399 l 5
 459 376 l 5
 537 331 l 5
 548 290 l 5
 518 238 l 5
 477 227 l 5
 399 272 l 5
 342 324 l 5
 359 249 l 5
 359 159 l 5
 329 129 l 5
 269 129 l 5
 239 159 l 5
 239 249 l 5
 256 324 l 5
 199 272 l 5
 121 227 l 5
 80 238 l 5
 50 290 l 5
 61 331 l 5
 139 376 l 5
 212 399 l 5
 139 422 l 5
 61 467 l 5
 50 508 l 5
 80 560 l 5
 121 571 l 5
 199 526 l 5
 256 474 l 5
 239 549 l 5
 239 639 l 5
 269 669 l 5
EndSplineSet
EndChar

StartChar: longs
Encoding: 383 383 164
Width: 300
VWidth: 0
Flags: W
HStem: -30 21G<80 140>
VStem: 80 120<10 400 520 570>
LayerCount: 2
Fore
SplineSet
200 10 m 1
 80 -30 l 1
 80 400 l 1
 20 400 l 1
 60 520 l 1
 80 520 l 1
 80 570 l 1
 260 750 l 1
 337.28 750 400 687.28 400 610 c 1
 280 570 l 1
 280 610 l 2
 280 621.04 271.04 630 260 630 c 2
 200 630 l 1
 200 10 l 1
EndSplineSet
EndChar

StartChar: OE
Encoding: 338 338 165
Width: 850
VWidth: 0
Flags: W
HStem: -20 120<229.794 360> -10 120<480 780> 280 120<50 70 560 760> 540 120<600 780> 550 120<270 373.781>
VStem: 70 120<139.794 280 400 520> 400 120<150 280 360 523.781>
LayerCount: 2
Fore
SplineSet
190 550 m 1xae
 190 200 l 2
 190 144.8 234.8 100 290 100 c 2
 400 100 l 1
 400 470 l 2
 400 514.16 364.16 550 320 550 c 2
 190 550 l 1xae
270 670 m 1
 320 670 l 2xae
 391.131 670 453.628 632.805 489.088 576.816 c 1
 600 660 l 1
 820 660 l 1
 780 540 l 1
 520 540 l 1
 520 360 l 1
 560 400 l 1
 800 400 l 1
 760 280 l 1
 520 280 l 1
 520 150 l 1
 480 110 l 1
 820 110 l 1
 780 -10 l 1
 430 -10 l 1x76
 448.889 46.667 l 1
 360 -20 l 1
 290 -20 l 2
 168.56 -20 70 78.5596 70 200 c 2
 70 280 l 1
 10 280 l 1
 50 400 l 1
 70 400 l 1
 70 520 l 1
 270 670 l 1
EndSplineSet
EndChar

StartChar: oe
Encoding: 339 339 166
Width: 730
VWidth: 0
Flags: W
HStem: -20 120<196.219 270 456.219 590> 400 120<250 295.701 510 554.968>
VStem: 50 120<126.219 370> 310 120<126.219 180 225 386.293> 570 120<330 384.968>
CounterMasks: 1 38
LayerCount: 2
Fore
SplineSet
510 520 m 1
 609.36 520 690 439.36 690 340 c 2
 690 330 l 1
 490 180 l 1
 430 180 l 1
 430 135.84 465.84 100 510 100 c 2
 670 100 l 1
 590 -20 l 1
 510 -20 l 2
 450.359 -20 396.788 6.14941 360.135 47.6006 c 1
 270 -20 l 1
 250 -20 l 2
 139.6 -20 50 69.5996 50 180 c 2
 50 370 l 1
 250 520 l 1
 313.157 520 368.75 487.419 400.878 438.158 c 1
 510 520 l 1
170 400 m 1
 170 180 l 2
 170 135.84 205.84 100 250 100 c 2
 310 100 l 1
 310 340 l 2
 310 373.12 283.12 400 250 400 c 2
 170 400 l 1
430 225 m 1
 570 330 l 1
 570 340 l 2
 570 373.12 543.12 400 510 400 c 2
 430 400 l 1
 430 225 l 1
EndSplineSet
EndChar

StartChar: braceleft
Encoding: 123 123 167
Width: 392
VWidth: 0
Flags: W
HStem: -180 120<228.219 302> 630 120<282 342>
VStem: 82 120<-33.7812 238.266 321.735 600>
LayerCount: 2
Fore
SplineSet
282 750 m 1
 382 750 l 1
 342 630 l 1
 202 630 l 1
 202 390 l 2
 202 340.825 172.367 298.529 130 280 c 1
 172.367 261.471 202 219.175 202 170 c 2
 202 20 l 2
 202 -24.1602 237.84 -60 282 -60 c 2
 382 -60 l 1
 302 -180 l 1
 282 -180 l 2
 171.6 -180 82 -90.4004 82 20 c 2
 82 170 l 2
 82 219.175 52.3672 261.471 10 280 c 1
 52.3672 298.531 82 340.826 82 390 c 2
 82 600 l 1
 282 750 l 1
EndSplineSet
EndChar

StartChar: braceright
Encoding: 125 125 168
Width: 392
VWidth: 0
Flags: W
HStem: -180 120<50 110> 630 120<90 163.781>
VStem: 190 120<-30 238.264 321.734 603.781>
LayerCount: 2
Fore
SplineSet
110 -180 m 1
 10 -180 l 1
 50 -60 l 1
 190 -60 l 1
 190 170 l 2
 190 219.175 219.633 261.471 262 280 c 1
 219.633 298.529 190 340.825 190 390 c 2
 190 550 l 2
 190 594.16 154.16 630 110 630 c 2
 10 630 l 1
 90 750 l 1
 110 750 l 2
 220.4 750 310 660.4 310 550 c 2
 310 390 l 2
 310 340.825 339.633 298.529 382 280 c 1
 339.633 261.469 310 219.174 310 170 c 2
 310 -30 l 1
 110 -180 l 1
EndSplineSet
EndChar

StartChar: uni00AD
Encoding: 173 173 170
Width: 460
VWidth: 0
Flags: W
HStem: 200 120<80 380>
VStem: 80 300<200 320>
LayerCount: 2
Fore
SplineSet
80 320 m 1
 380 320 l 5
 380 200 l 5
 80 200 l 1
 80 320 l 1
EndSplineSet
Validated: 3073
EndChar

StartChar: macron
Encoding: 175 175 171
Width: 450
VWidth: 0
Flags: W
HStem: 580 90<90 360>
VStem: 60 330
LayerCount: 2
Fore
SplineSet
90 670 m 1
 390 670 l 1
 360 580 l 1
 60 580 l 1
 90 670 l 1
EndSplineSet
EndChar

StartChar: uni00B5
Encoding: 181 181 172
Width: 480
VWidth: 0
Flags: W
HStem: -230 21G<50 110> -20 120<210 250 410 430> 500 20G<110 170>
VStem: 50 120<-190 -20 60 480> 290 120<100 500>
LayerCount: 2
Fore
SplineSet
170 60 m 1
 210 100 l 1
 290 100 l 1
 290 500 l 1
 410 500 l 1
 410 100 l 1
 470 100 l 1
 430 -20 l 1
 410 -20 l 2
 366.636 -20 328.626 3.04297 307.542 37.542 c 1
 250 -20 l 1
 170 -20 l 1
 170 -190 l 1
 50 -230 l 1
 50 480 l 1
 170 520 l 1
 170 60 l 1
EndSplineSet
EndChar

StartChar: quotedblleft
Encoding: 8220 8220 173
Width: 340
VWidth: 0
Flags: W
HStem: 550 160<80 140 240 300>
VStem: 80 60<550 578> 240 60<550 578>
LayerCount: 2
Fore
SplineSet
140 710 m 1
 140 550 l 1
 80 550 l 1
 40 710 l 1
 140 710 l 1
300 710 m 1
 300 550 l 1
 240 550 l 1
 200 710 l 1
 300 710 l 1
EndSplineSet
Validated: 3073
EndChar

StartChar: quotedblright
Encoding: 8221 8221 174
Width: 340
VWidth: 0
Flags: W
HStem: 550 160<40 100 200 260>
VStem: 40 60<550 578> 200 60<550 578>
LayerCount: 2
Fore
SplineSet
200 710 m 5
 300 710 l 5
 260 550 l 5
 200 550 l 5
 200 710 l 5
40 710 m 1
 140 710 l 1
 100 550 l 1
 40 550 l 1
 40 710 l 1
EndSplineSet
Validated: 3073
EndChar

StartChar: guillemotleft
Encoding: 171 171 175
Width: 590
VWidth: 0
Flags: W
LayerCount: 2
Fore
SplineSet
180 440 m 1
 310 440 l 1
 160 250 l 1
 310 60 l 1
 180 60 l 1
 30 250 l 1
 180 440 l 1
410 440 m 1
 540 440 l 1
 390 250 l 1
 540 60 l 1
 410 60 l 1
 260 250 l 1
 410 440 l 1
EndSplineSet
EndChar

StartChar: guillemotright
Encoding: 187 187 176
Width: 590
VWidth: 0
Flags: W
LayerCount: 2
Fore
SplineSet
410 440 m 1
 560 250 l 1
 410 60 l 1
 280 60 l 1
 430 250 l 1
 280 440 l 1
 410 440 l 1
180 440 m 1
 330 250 l 1
 180 60 l 1
 50 60 l 1
 200 250 l 1
 50 440 l 1
 180 440 l 1
EndSplineSet
EndChar

StartChar: guilsinglleft
Encoding: 8249 8249 177
Width: 360
VWidth: 0
Flags: W
VStem: 30 280
LayerCount: 2
Fore
SplineSet
180 440 m 1
 310 440 l 1
 160 250 l 1
 310 60 l 1
 180 60 l 1
 30 250 l 1
 180 440 l 1
EndSplineSet
EndChar

StartChar: guilsinglright
Encoding: 8250 8250 178
Width: 360
VWidth: 0
Flags: W
VStem: 50 280
LayerCount: 2
Fore
SplineSet
180 440 m 1
 330 250 l 1
 180 60 l 1
 50 60 l 1
 200 250 l 1
 50 440 l 1
 180 440 l 1
EndSplineSet
EndChar

StartChar: copyright
Encoding: 169 169 179
Width: 840
VWidth: 0
Flags: W
HStem: -20 100<290.821 520> 140 100<378.155 508.155> 430 100<428.155 508.155> 570 100<320 549.18>
VStem: 80 100<190.821 490> 278.155 100<240 410> 660 100<160 459.179>
LayerCount: 2
Fore
SplineSet
320 670 m 1
 460 670 l 2
 625.601 670 760 535.6 760 370 c 2
 760 160 l 1
 520 -20 l 1
 380 -20 l 2
 214.4 -20 80 114.4 80 280 c 2
 80 490 l 1
 320 670 l 1
286.656 570 m 1
 180 490 l 1
 180 280 l 2
 180 169.6 269.601 80 380 80 c 2
 553.344 80 l 1
 660 160 l 1
 660 370 l 2
 660 480.4 570.4 570 460 570 c 2
 286.656 570 l 1
428.155 530 m 1
 538.155 530 l 1
 508.155 430 l 1
 378.155 430 l 1
 378.155 240 l 1
 568.155 240 l 1
 508.155 140 l 1
 378.155 140 l 2
 322.955 140 278.155 184.8 278.155 240 c 2
 278.155 410 l 1
 428.155 530 l 1
EndSplineSet
Validated: 3073
EndChar

StartChar: registered
Encoding: 174 174 180
Width: 840
VWidth: 0
Flags: W
HStem: -20 100<290.821 520> 250 100<400 460> 420 100<290 300 380 460> 570 100<320 549.179>
VStem: 80 100<190.821 490> 280 100<150 250 330 400> 460 100<370 420 420 420> 660 100<160 459.179>
LayerCount: 2
Fore
SplineSet
290 520 m 1
 460 520 l 2
 515.2 520 560 475.2 560 420 c 2
 560 370 l 1
 527.844 337.844 l 1
 558.914 320.873 580 287.875 580 250 c 2
 580 220 l 1
 610 220 l 1
 580 120 l 1
 524.8 120 480 164.8 480 220 c 2
 480 250 l 1
 380 250 l 1
 380 150 l 1
 280 120 l 1
 280 400 l 1
 300 420 l 1
 260 420 l 1
 290 520 l 1
380 420 m 1
 380 330 l 1
 400 350 l 1
 460 350 l 1
 460 420 l 1
 380 420 l 1
320 670 m 1
 460 670 l 2
 625.6 670 760 535.6 760 370 c 2
 760 160 l 1
 520 -20 l 1
 380 -20 l 2
 214.4 -20 80 114.4 80 280 c 2
 80 490 l 1
 320 670 l 1
286.656 570 m 1
 180 490 l 1
 180 280 l 2
 180 169.6 269.6 80 380 80 c 2
 553.344 80 l 1
 660 160 l 1
 660 370 l 2
 660 480.4 570.4 570 460 570 c 2
 286.656 570 l 1
EndSplineSet
Validated: 3073
EndChar

StartChar: germandbls
Encoding: 223 223 181
Width: 520
VWidth: 0
Flags: W
HStem: -10 120<220 320> 280 120<220 310> 550 120<250 307.823>
VStem: 50 120<-110 520> 310 120<440 547.823> 360 120<110 273.844>
LayerCount: 2
Fore
SplineSet
250 670 m 1xf8
 290 670 l 2
 367.28 670 430 607.28 430 530 c 2
 430 440 l 1xf8
 378.844 388.844 l 1
 438.08 365.387 480 307.55 480 240 c 2
 480 110 l 1
 320 -10 l 1
 180 -10 l 1
 220 110 l 1
 360 110 l 1
 360 240 l 2xf4
 360 262.08 342.08 280 320 280 c 2
 180 280 l 1
 220 400 l 1
 310 400 l 1
 310 530 l 2
 310 541.04 301.04 550 290 550 c 2
 170 550 l 1
 170 -110 l 1
 50 -150 l 1
 50 520 l 1
 250 670 l 1xf8
EndSplineSet
EndChar

StartChar: degree
Encoding: 176 176 182
Width: 340
VWidth: 0
Flags: W
HStem: 430 75<126.251 200> 595 75<140 213.749>
VStem: 50 75<506.251 595> 215 75<505 593.749>
LayerCount: 2
Fore
SplineSet
140 670 m 1
 185 670 l 2
 243 670 290 623 290 565 c 2
 290 505 l 1
 200 430 l 1
 155 430 l 2
 97 430 50 477 50 535 c 2
 50 595 l 1
 140 670 l 1
125 595 m 1
 125 535 l 2
 125 518 138 505 155 505 c 2
 215 505 l 1
 215 565 l 2
 215 582 202 595 185 595 c 2
 125 595 l 1
EndSplineSet
EndChar

StartChar: uni00B9
Encoding: 185 185 185
Width: 360
VWidth: 0
Flags: W
HStem: 194 84<75 145 201 285> 474 84<89 173 229 243>
VStem: 145 84<306 446>
LayerCount: 2
Fore
SplineSet
89 558 m 1
 271 558 l 1
 243 474 l 1
 229 474 l 1
 229 306 l 1
 201 278 l 1
 313 278 l 1
 285 194 l 1
 47 194 l 1
 75 278 l 1
 145 278 l 1
 145 446 l 1
 173 474 l 1
 61 474 l 1
 89 558 l 1
EndSplineSet
Validated: 3073
EndChar

StartChar: uni00B2
Encoding: 178 178 186
Width: 360
VWidth: 0
Flags: W
HStem: 194 84<170 289> 481 84<163 211.64>
VStem: 219 84<395.756 474.516>
LayerCount: 2
Fore
SplineSet
163 565 m 1
 177 565 l 2
 247 565 303 509 303 439 c 0
 303 410 294 384 277 363 c 2
 225 295 l 1
 170 278 l 1
 213 278 l 1
 317 278 l 1
 289 194 l 1
 44 194 l 1
 43 194 l 1
 211 413 l 2
 216 421 219 429 219 439 c 0
 219 462 200 481 177 481 c 2
 135 481 l 1
 135 453 l 1
 51 425 l 1
 51 481 l 1
 163 565 l 1
EndSplineSet
EndChar

StartChar: uni00B3
Encoding: 179 179 187
Width: 360
VWidth: 0
Flags: W
HStem: 127 84<68 180> 312 84<96 221.785> 474 84<82 219.284>
VStem: 222 84<410 471.284> 236 84<232 310.517>
LayerCount: 2
Fore
SplineSet
82 558 m 1xf0
 194 558 l 2
 255.824 558 306 507.824 306 446 c 2
 306 410 l 1xf0
 263.19 381.453 l 1
 297.104 362.196 320 325.762 320 284 c 2
 320 232 l 1
 180 127 l 1
 40 127 l 1
 68 211 l 1
 236 211 l 1
 236 284 l 2xe8
 236 299.456 223.456 312 208 312 c 2
 68 312 l 1
 96 396 l 1
 208 396 l 2
 212.74 396 217.414 395.697 222 395.125 c 1
 222 446 l 2
 222 461.456 209.456 474 194 474 c 2
 54 474 l 1
 82 558 l 1xf0
EndSplineSet
Validated: 3073
EndChar

StartChar: onequarter
Encoding: 188 188 188
Width: 800
VWidth: 0
Flags: W
HStem: -20 21G<187 305.696> 73 84<466 480 536 606 718 732> 306 84<68 138 194 278> 586 84<82 166 222 236>
VStem: 138 84<418 558> 480 84<185 304> 634 84<-32 73 157 423>
LayerCount: 2
Fore
SplineSet
718 451 m 1
 718 157 l 1
 760 157 l 1
 732 73 l 1
 718 73 l 1
 718 -32 l 1
 634 -60 l 1
 634 101 l 1
 606 73 l 1
 438 73 l 1
 466 157 l 1
 480 157 l 1
 480 304 l 1
 564 332 l 1
 564 185 l 1
 536 157 l 1
 634 157 l 1
 634 423 l 1
 718 451 l 1
82 670 m 1
 264 670 l 1
 236 586 l 1
 222 586 l 1
 222 418 l 1
 194 390 l 1
 306 390 l 1
 278 306 l 1
 40 306 l 1
 68 390 l 1
 138 390 l 1
 138 558 l 1
 166 586 l 1
 54 586 l 1
 82 670 l 1
487 670 m 1
 597 670 l 1
 297 -20 l 1
 187 -20 l 1
 487 670 l 1
EndSplineSet
Validated: 3073
EndChar

StartChar: onehalf
Encoding: 189 189 189
Width: 800
VWidth: 0
Flags: W
HStem: -10 84<613 732> 277 84<606 654.481> 306 84<68 138 194 278> 586 84<82 166 222 236>
VStem: 138 84<418 558> 662 84<192.53 270.705>
LayerCount: 2
Fore
SplineSet
82 670 m 1xbc
 264 670 l 1
 236 586 l 1
 222 586 l 1
 222 418 l 1
 194 390 l 1
 306 390 l 1
 278 306 l 1
 40 306 l 1
 68 390 l 1
 138 390 l 1
 138 558 l 1
 166 586 l 1
 54 586 l 1
 82 670 l 1xbc
487 670 m 1
 597 670 l 1
 297 -20 l 1
 187 -20 l 1
 487 670 l 1
606 361 m 1xdc
 620 361 l 2
 689.552 361 746 304.552 746 235 c 0
 746 206.232 736.324 179.72 720.078 158.503 c 2
 668.146 90.5371 l 1
 613 74 l 1
 655.503 74 l 1
 760 74 l 1
 732 -10 l 1
 487 -10 l 1
 485.6 -10 l 1
 653.359 209.493 l 2
 658.772 216.565 662 225.413 662 235 c 0
 662 258.184 643.184 277 620 277 c 2
 578 277 l 1
 578 249 l 1
 494 221 l 1
 494 277 l 1
 606 361 l 1xdc
EndSplineSet
Validated: 3073
EndChar

StartChar: threequarters
Encoding: 190 190 190
Width: 800
VWidth: 0
Flags: W
HStem: -20 21G<194 312.696> 73 84<466 480 536 606 718 732> 239 84<68 180> 424 84<96 221.785> 586 84<82 219.284>
VStem: 222 84<522 583.284> 236 84<344 422.517> 480 84<185 304> 634 84<-32 73 157 423>
LayerCount: 2
Fore
SplineSet
82 670 m 1xfd80
 194 670 l 2
 255.824 670 306 619.824 306 558 c 2
 306 522 l 1xfd80
 263.19 493.453 l 1
 297.104 474.196 320 437.762 320 396 c 2
 320 344 l 1
 180 239 l 1
 40 239 l 1
 68 323 l 1
 236 323 l 1
 236 396 l 2xfb80
 236 411.456 223.456 424 208 424 c 2
 68 424 l 1
 96 508 l 1
 208 508 l 2
 212.74 508 217.414 507.697 222 507.125 c 1
 222 558 l 2
 222 573.456 209.456 586 194 586 c 2
 54 586 l 1
 82 670 l 1xfd80
718 451 m 1
 718 157 l 1
 760 157 l 1
 732 73 l 1
 718 73 l 1
 718 -32 l 1
 634 -60 l 1
 634 101 l 1
 606 73 l 1
 438 73 l 1
 466 157 l 1
 480 157 l 1
 480 304 l 1
 564 332 l 1
 564 185 l 1
 536 157 l 1
 634 157 l 1
 634 423 l 1
 718 451 l 1
494 670 m 5
 604 670 l 5
 304 -20 l 5
 194 -20 l 5
 494 670 l 5
EndSplineSet
Validated: 3073
EndChar

StartChar: bullet
Encoding: 8226 8226 191
Width: 400
VWidth: 0
Flags: W
HStem: 120 240<170 230>
VStem: 80 240<195 225 225 285>
LayerCount: 2
Fore
SplineSet
170 360 m 1
 215 360 l 2
 273 360 320 313 320 255 c 2
 320 195 l 1
 230 120 l 1
 185 120 l 2
 127 120 80 167 80 225 c 2
 80 285 l 1
 170 360 l 1
EndSplineSet
EndChar

StartChar: oslash
Encoding: 248 248 192
Width: 480
VWidth: 0
Flags: W
HStem: -20 120<214.159 270> 500 20G<223.333 261.803>
VStem: 50 120<172.052 370> 310 120<100 330.5>
LayerCount: 2
Fore
SplineSet
355 595 m 1
 425 595 l 1
 371.755 472.538 l 1
 407.554 439.631 430 392.421 430 340 c 2
 430 100 l 1
 270 -20 l 1
 250 -20 l 2
 219.886 -20 191.32 -13.333 165.697 -1.39648 c 1
 125 -95 l 1
 55 -95 l 1
 111.748 35.5205 l 1
 73.7031 71.9365 50 123.217 50 180 c 2
 50 370 l 1
 250 520 l 1
 273.605 520 296.154 515.449 316.816 507.176 c 1
 355 595 l 1
170 400 m 1
 170 180 l 2
 170 176.863 170.181 173.768 170.533 170.725 c 1
 268.896 396.96 l 1
 262.954 398.932 256.601 400 250 400 c 2
 170 400 l 1
310 330.5 m 1
 213.59 108.756 l 1
 224.513 103.159 236.89 100 250 100 c 2
 310 100 l 1
 310 330.5 l 1
EndSplineSet
EndChar

StartChar: Oslash
Encoding: 216 216 193
Width: 571
VWidth: 0
Flags: W
HStem: -20 120<249.335 360> 550 120<270 363.819>
VStem: 70 120<157.831 280 400 520> 400 120<100 457.329>
LayerCount: 2
Fore
SplineSet
190 550 m 1
 190 200 l 2
 190 184.697 193.443 170.193 199.596 157.222 c 1
 364.417 536.534 l 1
 351.708 545.039 336.43 550 320 550 c 2
 190 550 l 1
270 670 m 1
 320 670 l 2
 353.388 670 384.874 661.805 412.555 647.318 c 1
 455 745 l 1
 525 745 l 1
 465.235 607.459 l 1
 499.175 571.613 520 523.224 520 470 c 2
 520 100 l 1
 360 -20 l 1
 290 -20 l 2
 258.247 -20 228.057 -13.2617 200.785 -1.1377 c 1
 160 -95 l 1
 90 -95 l 1
 145.948 33.7578 l 1
 99.4326 74.1055 70 133.636 70 200 c 2
 70 280 l 1
 10 280 l 1
 50 400 l 1
 70 400 l 1
 70 520 l 1
 270 670 l 1
400 457.329 m 1
 248.62 108.947 l 1
 261.232 103.201 275.244 100 290 100 c 2
 400 100 l 1
 400 457.329 l 1
EndSplineSet
EndChar

StartChar: divide
Encoding: 247 247 194
Width: 560
VWidth: 0
Flags: W
HStem: 40 100<230 330> 210 100<80 480> 380 100<230 330>
VStem: 230 100<40 140 380 480>
CounterMasks: 1 e0
LayerCount: 2
Fore
SplineSet
230 140 m 1
 330 140 l 1
 330 40 l 1
 230 40 l 1
 230 140 l 1
230 480 m 5
 330 480 l 5
 330 380 l 5
 230 380 l 5
 230 480 l 5
80 310 m 1
 480 310 l 1
 480 210 l 1
 80 210 l 1
 80 310 l 1
EndSplineSet
EndChar

StartChar: section
Encoding: 167 167 195
Width: 550
VWidth: 0
Flags: W
HStem: -220 120<202.177 290> 50 120<187.768 365.177> 280 120<184.823 362.233> 550 120<260 327.823>
VStem: 60 120<177.768 260 406.35 520> 80 120<-97.8229 -40> 330 120<490 547.823> 370 120<-70 43.6496 190 272.233>
LayerCount: 2
Fore
SplineSet
260 670 m 1xfa
 310 670 l 2
 387.28 670 450 607.28 450 530 c 2
 450 490 l 1
 330 440 l 1
 330 530 l 2
 330 541.04 321.04 550 310 550 c 2
 180 550 l 1
 180 440 l 2
 180 417.92 197.92 400 220 400 c 2
 330 400 l 2xfa
 418.32 400 490 328.32 490 240 c 2
 490 190 l 1
 432.656 132.656 l 1
 467.69 103.299 490 59.25 490 10 c 2
 490 -70 l 1
 290 -220 l 1
 220 -220 l 2
 142.72 -220 80 -157.28 80 -80 c 2
 80 -40 l 1
 200 10 l 1
 200 -80 l 2
 200 -91.04 208.96 -100 220 -100 c 2
 370 -100 l 1
 370 10 l 2xf5
 370 32.0801 352.08 50 330 50 c 2
 220 50 l 2
 131.68 50 60 121.68 60 210 c 2
 60 260 l 1
 117.344 317.344 l 1
 82.3096 346.701 60 390.75 60 440 c 2
 60 520 l 1
 260 670 l 1xfa
180 285.031 m 1
 180 210 l 2
 180 187.92 197.92 170 220 170 c 2
 330 170 l 2xfa
 343.811 170 357.214 168.264 370 164.969 c 1
 370 240 l 2xf1
 370 262.08 352.08 280 330 280 c 2
 220 280 l 2
 206.189 280 192.786 281.736 180 285.031 c 1
EndSplineSet
Validated: 3073
EndChar

StartChar: ordfeminine
Encoding: 170 170 196
Width: 480
VWidth: 0
Flags: W
HStem: 350 100<155.025 210 354.655 390> 570 100<170 244.93>
VStem: 50 100<455.025 570> 250 100<454.788 565.622>
LayerCount: 2
Fore
SplineSet
170 670 m 1
 210 670 l 2
 239.684 670 267.217 660.747 289.875 644.969 c 1
 350 660 l 1
 350 490 l 2
 350 467.92 367.92 450 390 450 c 2
 430 450 l 1
 390 350 l 1
 344.043 350 303.218 372.174 277.688 406.406 c 1
 210 350 l 1
 190 350 l 2
 112.72 350 50 412.72 50 490 c 2
 50 570 l 1
 170 670 l 1
150 570 m 1
 150 490 l 2
 150 467.92 167.92 450 190 450 c 2
 255.812 450 l 1
 252.036 462.675 250 476.104 250 490 c 2
 250 530 l 2
 250 552.08 232.08 570 210 570 c 2
 150 570 l 1
EndSplineSet
EndChar

StartChar: sterling
Encoding: 163 163 197
Width: 520
VWidth: 0
Flags: W
HStem: -10 120<60 80 160 460> 280 120<60 80 240 300>
VStem: 80 120<150 280 400 510>
LayerCount: 2
Fore
SplineSet
280 660 m 1
 360 660 l 1
 320 540 l 1
 200 540 l 1
 200 360 l 1
 240 400 l 1
 340 400 l 1
 300 280 l 1
 200 280 l 1
 200 150 l 1
 160 110 l 1
 500 110 l 1
 460 -10 l 1
 20 -10 l 1
 60 110 l 1
 80 110 l 1
 80 280 l 1
 20 280 l 1
 60 400 l 1
 80 400 l 1
 80 510 l 1
 280 660 l 1
EndSplineSet
Validated: 3073
EndChar

StartChar: cent
Encoding: 162 162 198
Width: 420
VWidth: 0
Flags: W
HStem: -20 120<196.039 239 299 330> 400 120<299 370> 650 20G<239 299>
VStem: 50 120<127.015 370> 239 60<-180 -20 100.751 400 520 650>
LayerCount: 2
Fore
SplineSet
239 650 m 1
 299 670 l 1
 299 520 l 1
 410 520 l 1
 370 400 l 1
 299 400 l 1
 299 100 l 1
 410 100 l 1
 330 -20 l 1
 299 -20 l 1
 299 -180 l 1
 239 -200 l 1
 239 -19.7021 l 1
 133.709 -13.9863 50 73.29 50 180 c 2
 50 370 l 1
 239 511.75 l 1
 239 650 l 1
239 100.751 m 1
 239 400 l 1
 170 400 l 1
 170 180 l 2
 170 139.572 200.039 106.117 239 100.751 c 1
EndSplineSet
EndChar

StartChar: currency
Encoding: 164 164 199
Width: 588
VWidth: 0
Flags: W
HStem: 80 120<250.41 324> 500 20G<277.253 328>
VStem: 104 120<226.53 370> 364 120<200 386.204>
LayerCount: 2
Fore
SplineSet
85 56 m 1
 50 91 l 1
 134 175 l 1
 115 206 104 242 104 280 c 2
 104 370 l 1
 152 406 l 1
 50 509 l 1
 85 544 l 1
 193 437 l 1
 304 520 l 1
 352 520 396 501 429 470 c 1
 503 544 l 1
 538 509 l 1
 460 430 l 1
 475 404 484 373 484 340 c 2
 484 200 l 1
 453 177 l 1
 538 91 l 1
 503 56 l 1
 412 146 l 1
 324 80 l 1
 304 80 l 2
 250 80 201 101 165 136 c 1
 85 56 l 1
224 400 m 1
 224 280 l 2
 224 236 260 200 304 200 c 2
 364 200 l 1
 364 340 l 2
 364 373 337 400 304 400 c 2
 224 400 l 1
EndSplineSet
EndChar

StartChar: brokenbar
Encoding: 166 166 210
Width: 240
VWidth: 0
Flags: W
VStem: 80 80<-170 210 330 710>
LayerCount: 2
Fore
SplineSet
80 330 m 1
 80 710 l 1
 160 710 l 1
 160 330 l 1
 80 330 l 1
80 -170 m 1
 80 210 l 1
 160 210 l 1
 160 -170 l 1
 80 -170 l 1
EndSplineSet
EndChar

StartChar: thorn
Encoding: 254 254 211
Width: 480
VWidth: 0
Flags: W
HStem: -230 21G<50 170> -20 120<230 283.781> 500 20G<243.328 314.16>
VStem: 50 120<-210 25 100 400 445.014 700> 310 120<126.219 180 180 392.233>
LayerCount: 2
Fore
SplineSet
170 445.014 m 1
 270 520 l 1
 358.32 520 430 448.32 430 360 c 2
 430 180 l 2
 430 69.5996 340.4 -20 230 -20 c 1
 170 25 l 1
 170 -210 l 1
 50 -230 l 1
 50 700 l 1
 170 730 l 1
 170 445.014 l 1
170 400 m 1
 170 100 l 1
 230 100 l 2
 274.16 100 310 135.84 310 180 c 2
 310 360 l 2
 310 382.08 292.08 400 270 400 c 2
 170 400 l 1
EndSplineSet
EndChar

StartChar: Eth
Encoding: 208 208 212
Width: 570
VWidth: 0
Flags: W
HStem: -10 120<70 90 170 360> 280 120<50 90 210 310> 550 120<290 384.968>
VStem: 90 120<150 280 400 520> 400 120<110 534.968>
LayerCount: 2
Fore
SplineSet
290 670 m 1
 340 670 l 2
 439.36 670 520 589.36 520 490 c 2
 520 110 l 1
 360 -10 l 1
 30 -10 l 1
 70 110 l 1
 90 110 l 1
 90 280 l 1
 10 280 l 1
 50 400 l 1
 90 400 l 1
 90 520 l 1
 290 670 l 1
210 400 m 1
 350 400 l 1
 310 280 l 1
 210 280 l 1
 210 150 l 1
 170 110 l 1
 400 110 l 1
 400 490 l 2
 400 523.12 373.12 550 340 550 c 2
 210 550 l 1
 210 400 l 1
EndSplineSet
EndChar

StartChar: Dcroat
Encoding: 272 272 213
Width: 570
VWidth: 0
Flags: W
HStem: -10 120<70 90 170 360> 280 120<50 90 210 310> 550 120<290 384.968>
VStem: 90 120<150 280 400 520> 400 120<110 534.968>
LayerCount: 2
Fore
SplineSet
290 670 m 1
 340 670 l 2
 439.36 670 520 589.36 520 490 c 2
 520 110 l 1
 360 -10 l 1
 30 -10 l 1
 70 110 l 1
 90 110 l 1
 90 280 l 1
 10 280 l 1
 50 400 l 1
 90 400 l 1
 90 520 l 1
 290 670 l 1
210 400 m 1
 350 400 l 1
 310 280 l 1
 210 280 l 1
 210 150 l 1
 170 110 l 1
 400 110 l 1
 400 490 l 2
 400 523.12 373.12 550 340 550 c 2
 210 550 l 1
 210 400 l 1
EndSplineSet
EndChar

StartChar: eth
Encoding: 240 240 214
Width: 460
VWidth: 0
Flags: W
HStem: -20 120<210 282.233> 550 120<170 250.206>
VStem: 50 120<100 312.233> 290 120<107.767 140 140 320 380 510.206>
LayerCount: 2
Fore
SplineSet
190 670 m 2
 311.44 670 410 571.44 410 450 c 2
 410 140 l 2
 410 51.6797 338.32 -20 250 -20 c 2
 210 -20 l 1
 50 100 l 1
 50 280 l 2
 50 368.32 121.68 440 210 440 c 1
 290 380 l 1
 290 450 l 2
 290 505.2 245.2 550 190 550 c 2
 170 550 l 1
 130 670 l 1
 190 670 l 2
290 320 m 1
 210 320 l 2
 187.92 320 170 302.08 170 280 c 2
 170 100 l 1
 250 100 l 2
 272.08 100 290 117.92 290 140 c 2
 290 320 l 1
EndSplineSet
Validated: 3073
EndChar

StartChar: yen
Encoding: 165 165 215
Width: 610
VWidth: 0
Flags: W
HStem: -230 21G<380 440> -60 60<180 380 500 570> 40 60<180 380 500 570> 160 120<215.032 290> 650 20G<53.3333 113.12>
VStem: 80 120<295.032 550 550 550> 380 120<-190 -60 0 40 100 227.5 280 640>
LayerCount: 2
Fore
SplineSet
500 -190 m 1
 380 -230 l 1
 380 -60 l 1
 140 -60 l 1
 180 0 l 1
 380 0 l 1
 380 40 l 1
 140 40 l 1
 180 100 l 1
 380 100 l 1
 380 227.5 l 1
 290 160 l 1
 260 160 l 2
 160.64 160 80 240.64 80 340 c 2
 80 550 l 1
 20 550 l 1
 60 670 l 1
 80 670 l 2
 146.24 670 200 616.241 200 550 c 2
 200 340 l 2
 200 306.88 226.88 280 260 280 c 2
 380 280 l 1
 380 640 l 1
 500 680 l 1
 500 100 l 1
 610 100 l 1
 570 40 l 1
 500 40 l 1
 500 0 l 1
 610 0 l 1
 570 -60 l 1
 500 -60 l 1
 500 -190 l 1
EndSplineSet
EndChar

StartChar: logicalnot
Encoding: 172 172 216
Width: 780
VWidth: 0
Flags: W
HStem: 260 120<80 580>
VStem: 580 120<50 260>
LayerCount: 2
Fore
SplineSet
700 380 m 5
 700 50 l 5
 580 50 l 5
 580 260 l 5
 80 260 l 5
 80 380 l 5
 700 380 l 5
EndSplineSet
EndChar

StartChar: Thorn
Encoding: 222 222 217
Width: 530
VWidth: 0
Flags: W
HStem: -10 120<210 320> 550 120<250 344.968>
VStem: 50 120<-140 -10 70 550 610 710> 360 120<110 534.968>
LayerCount: 2
Fore
SplineSet
50 710 m 1
 170 740 l 1
 170 610 l 1
 250 670 l 1
 300 670 l 2
 399.36 670 480 589.36 480 490 c 2
 480 110 l 1
 320 -10 l 1
 170 -10 l 1
 170 -140 l 1
 50 -160 l 1
 50 520 l 1
 50 710 l 1
170 550 m 1
 170 70 l 1
 210 110 l 1
 360 110 l 1
 360 490 l 2
 360 523.12 333.12 550 300 550 c 2
 170 550 l 1
EndSplineSet
EndChar

StartChar: paragraph
Encoding: 182 182 218
Width: 670
VWidth: 0
Flags: W
HStem: -20 21G<290 350 551.36 616.667> 280 120<167.768 250> 540 120<167.768 330 410 490 570 610>
VStem: 40 120<407.767 440 440 532.232> 290 120<10 280 360 500> 450 120<102.177 500>
LayerCount: 2
Fore
SplineSet
330 540 m 1
 200 540 l 2
 177.92 540 160 522.08 160 500 c 2
 160 440 l 2
 160 417.92 177.92 400 200 400 c 2
 250 400 l 1
 290 360 l 1
 290 500 l 1
 330 540 l 1
410 10 m 1
 290 -30 l 1
 290 280 l 1
 200 280 l 2
 111.68 280 40 351.68 40 440 c 2
 40 500 l 2
 40 588.32 111.68 660 200 660 c 2
 610 660 l 1
 650 540 l 1
 570 540 l 1
 570 120 l 2
 570 108.96 578.96 100 590 100 c 2
 650 100 l 1
 610 -20 l 1
 590 -20 l 2
 512.72 -20 450 42.7197 450 120 c 2
 450 500 l 1
 490 540 l 1
 410 540 l 1
 410 10 l 1
EndSplineSet
Validated: 3073
EndChar

StartChar: dagger
Encoding: 8224 8224 230
Width: 850
VWidth: 0
Flags: W
HStem: -20 21G<190 660> 650 20G<190 660>
LayerCount: 2
Fore
SplineSet
190 670 m 1
 660 670 l 1
 660 655.5 l 1
 588.344 594.851 510.426 485.09 490 390 c 1
 585.089 410.426 694.851 488.344 755.5 560 c 1
 770 560 l 1
 770 90 l 1
 755.5 90 l 1
 694.851 161.656 585.09 239.574 490 260 c 1
 510.426 164.91 588.344 55.1494 660 -5.5 c 1
 660 -20 l 1
 190 -20 l 1
 190 -5.5 l 1
 261.656 55.1494 339.574 164.911 360 260 c 1
 264.911 239.574 155.149 161.656 94.5 90 c 1
 80 90 l 1
 80 560 l 1
 94.5 560 l 1
 155.147 488.346 264.912 410.426 360 390 c 1
 339.574 485.088 261.654 594.854 190 655.5 c 1
 190 670 l 1
EndSplineSet
EndChar

StartChar: uni2010
Encoding: 8208 8208 231
Width: 460
VWidth: 0
Flags: W
HStem: 200 120<80 380>
VStem: 80 300<200 320>
LayerCount: 2
Fore
SplineSet
80 320 m 1
 380 320 l 5
 380 200 l 5
 80 200 l 1
 80 320 l 1
EndSplineSet
Validated: 3073
EndChar

StartChar: uni2011
Encoding: 8209 8209 232
Width: 460
VWidth: 0
Flags: W
HStem: 200 120<80 380>
VStem: 80 300<200 320>
LayerCount: 2
Fore
SplineSet
80 320 m 1
 380 320 l 5
 380 200 l 5
 80 200 l 1
 80 320 l 1
EndSplineSet
Validated: 3073
EndChar

StartChar: endash
Encoding: 8211 8211 233
Width: 660
VWidth: 0
Flags: W
HStem: 200 120<80 580>
LayerCount: 2
Fore
SplineSet
80 320 m 1
 580 320 l 5
 580 200 l 5
 80 200 l 1
 80 320 l 1
EndSplineSet
Validated: 3073
EndChar

StartChar: emdash
Encoding: 8212 8212 234
Width: 1160
VWidth: 0
Flags: W
HStem: 200 120<80 1080>
LayerCount: 2
Fore
SplineSet
80 320 m 1
 1080 320 l 5
 1080 200 l 5
 80 200 l 1
 80 320 l 1
EndSplineSet
Validated: 3073
EndChar

StartChar: afii00208
Encoding: 8213 8213 235
Width: 860
VWidth: 0
Flags: W
HStem: 200 120<80 780>
LayerCount: 2
Fore
SplineSet
80 320 m 1
 780 320 l 5
 780 200 l 5
 80 200 l 1
 80 320 l 1
EndSplineSet
Validated: 3073
EndChar

StartChar: figuredash
Encoding: 8210 8210 236
Width: 460
VWidth: 0
Flags: W
HStem: 200 120<80 380>
VStem: 80 300<200 320>
LayerCount: 2
Fore
SplineSet
80 320 m 1
 380 320 l 5
 380 200 l 5
 80 200 l 1
 80 320 l 1
EndSplineSet
Validated: 3073
EndChar

